<svg xmlns="http://www.w3.org/2000/svg" xmlns:xlink="http://www.w3.org/1999/xlink" width="64" height="64" version="1"><defs><path id="a" d="M0 0H64V64H0z"/></defs><clipPath id="b"><use overflow="visible" xlink:href="#a"/></clipPath><path fill="#939393" d="M63.4,25.7C61,13.2,50.9,3,38.3,0.6C15.8-3.7-3.7,15.8,0.6,38.3 C3,50.9,13.2,61,25.7,63.4C48.3,67.7,67.7,48.3,63.4,25.7L63.4,25.7z M46.8,46.8C46.1,47.6,45,48,44,48c-1,0-2-0.4-2.8-1.2l-12-12 C28.4,34.1,28,33.1,28,32V16c0-2.2,1.8-4,4-4c2.2,0,4,1.8,4,4v14.4l10.8,10.8C48.4,42.8,48.4,45.3,46.8,46.8L46.8,46.8z M46.8,46.8" clip-path="url(#b)"/></svg>