<svg xmlns="http://www.w3.org/2000/svg" xmlns:xlink="http://www.w3.org/1999/xlink" width="390.3" height="1926.2"><defs><path id="a" d="M83.3 13.2h232v184h-232z"/></defs><clipPath id="b"><use xlink:href="#a" overflow="visible"/></clipPath><g clip-path="url(#b)"><defs><path id="c" transform="rotate(-78.516 197.786 106.883)" d="M98 7.1h199.6v199.6H98z"/></defs><clipPath id="d"><use xlink:href="#c" overflow="visible"/></clipPath><path clip-path="url(#d)" fill="#F3F3F3" d="M223.4 172.6c-1-.2-1.6-.7-2.1-1.4-1-1.6-.6-3.5.9-4.6l7.8-5.2c1.6-1 3.5-.6 4.6.9 1 1.6.6 3.5-.9 4.6l-7.8 5.2c-.8.5-1.5.7-2.5.5zM123.5 11.4c-3.9 7.4-2.7 16.8 3.1 23 5.6 5.9 14.4 7.7 21.8 4.8 5.6-2.3 9.9-6.8 11.7-12.6 1.8-5.7.7-11.7-2.4-16.8-2.3-3.5-5.5-6.2-9.3-7.7l4.7 13.8c.5 1.1.3 2.1-.6 2.9l-1 1.5c-4.6 5.9-12.2 8.4-19.6 6.5l-1.6-.3c-1-.2-1.8-1-2.3-2.2l-4.5-12.9zM136 46.9c-5.2-1.1-10.1-3.7-14-7.9-10.1-10.5-9.8-26.8.4-36.9.9-.8 2-1.3 2.9-.8 1 .2 2.1 1.1 2.3 2.2l6.3 17.6c4.5 1.3 9.6-.4 12.4-4.3l-5.8-18.1c-.5-1.1-.2-2.4.7-3.3.5-.6 1.6-1 2.6-1.2 8 .9 15.2 5.1 19.7 11.8 4.4 6.7 5.5 14.7 3.3 22.4-2.2 7.7-7.9 13.7-15.3 16.9-5.2 2.3-10.6 2.6-15.5 1.6zM259 173c-3.9-.8-7.7-.5-11.4 1.1-5.6 2.3-9.9 6.8-11.7 12.6-1.8 5.7-.7 11.7 2.4 16.8 2.3 3.5 5.5 6.2 9.3 7.7l-4.7-13.8c-.5-1.1-.3-2.1.6-2.9l1-1.5c4.6-5.9 12.3-8.7 19.6-6.5l1.6.3c1 .2 1.8 1 2.3 2.2l4.5 13.1c3.9-7.4 2.7-16.8-3.1-23-2.9-3.2-6.5-5.3-10.4-6.1zm-9.3 45.6c-6.8-1.4-12.8-5.3-16.7-11.2-4.4-6.7-5.5-14.7-3.3-22.4 2.2-7.7 7.9-13.7 15.3-16.9 10-4.1 21.7-1.7 29.3 6.3 9.8 10.5 9.8 26.8-.4 36.9-.9.8-1.9 1-3.3 1-1-.2-2.1-1.1-2.3-2.2l-5.9-17.5c-4.8-1.3-9.6.4-12.7 4.2l6.2 17.9c.5 1.1.2 2.4-.7 3.3-.9.8-2 1.3-2.9 1.1-.6-.1-1.6-.3-2.6-.5z"/></g><path clip-path="url(#b)" fill="#F3F3F3" d="M217.7 160.5c-1-.2-1.6-.7-2.1-1.4-1-1.6-.6-3.5.9-4.6l6.3-4.2c1.6-1 3.5-.6 4.6.9 1 1.6.6 3.5-.9 4.6l-6.3 4.2c-.8.5-1.5.7-2.5.5zM259.6 123.2c1 1.6 3 2 4.6.9l27.8-18.4c.8-.5 1.2-1.1 1.4-2.1s0-1.7-.5-2.5l-9.1-13.7c-1.2 1.1-3 1.4-5 1-1.6-.3-3.5-1.4-4.5-2.9-3.1-4.7-2.9-7.4-2.2-11 .2-1 .5-2.3.5-4 .3-3.3-.6-6.9-2.7-10.1l-9.3-14.1c-5.5-8.2-7.5-11.4-14.7-16.2-12.4-9-26.1-12.1-45.8-10 8.6 2.8 15.8 7.6 24.1 19.8 6.2 9.4 4.4 21.9-4.6 29.3l11.2 16.9c2.1 3.1 4.7 5.4 8.2 6.4 1.6.7 2.9.9 3.8 1.1 3.6.7 6.1 1.6 9.2 6.3 1 1.6 1.3 3.7 1 5.3-.1 2-1.1 3.5-2.6 4.2l9.2 13.8m.7 8.3c-2.6-.5-5-2-6.2-4.3l-9.1-13.7c-1-1.6-1.3-3.7-1-5.3s1.3-3.1 2.8-3.8c-2.1-2.8-2.8-2.9-5.4-3.5-1.3-.3-2.6-.5-4.5-1.3-4.4-1.6-8.5-4.8-11.4-9.1l-12.7-19.2c-1-1.6-.6-3.5.9-4.6 7.8-5.2 10.2-14.9 5.2-22.4-10.4-15.7-17.9-17.2-32.2-20.1l-4.2-.9c-1.6-.3-2.7-1.6-2.7-3.3 0-1.7.9-2.9 2.7-3.2 30.6-7 50.2-4.7 67.3 7.9 8 5.7 10.6 9.6 16.1 17.9l9.3 14.1c2.9 4.3 4.2 9.3 3.9 14 .3 2.1-.1 3.7-.3 5-.5 2.6-.7 3.3 1.5 6.1 1.5-.7 3.3-1.4 5-1 1.6.3 3.1 1.3 4.2 2.9l9.1 13.7c1.6 2.4 2.1 4.8 1.5 7.4-.5 2.6-2 5-4.3 6.2L268 129.4c-2.3 2.2-5.1 2.6-7.7 2.1z"/><path clip-path="url(#b)" fill="#12100B" d="M214.7 73.7L93.5 164.1c-2 1.3-2.9 2.8-3.3 4.8-.3 1.6 0 3.4 1 5l3.7 5.2c2.1 3.1 6.4 3.7 9.5 1.6l121.2-90.4-10.9-16.6zm-117 114.7c-3.3-.7-6.3-2.6-8.4-5.4l-3.6-5.5c-2.1-3.1-2.7-6.7-2-10.2.7-3.6 2.8-6.9 5.9-9L213.5 66c.8-.5 1.5-.7 2.5-.5 1 .2 1.6.7 2.1 1.4l14.8 22.3c1 1.6.6 3.5-.9 4.6l-124 92.6c-3.2 2.1-7 2.7-10.3 2z"/><path clip-path="url(#b)" fill="#F3F3F3" d="M101.6 169.5c-1-.2-1.6-.7-2.1-1.4l-5.5-8.2c-1-1.6-.6-3.5.9-4.6 1.6-1 3.5-.6 4.6.9l5.5 8.2c1 1.6.6 3.5-.9 4.6-.8.5-1.6.7-2.5.5zM112.5 162.2c-1-.2-1.6-.7-2.1-1.4l-5.5-8.2c-1-1.6-.6-3.5.9-4.6 1.6-1 3.5-.6 4.6.9l5.5 8.2c1 1.6.6 3.5-.9 4.6-.8.5-1.5.7-2.5.5z"/><path clip-path="url(#b)" fill="#12100B" d="M214.7 73.7L93.5 164.1c-2 1.3-2.9 2.8-3.3 4.8-.3 1.6 0 3.4 1 5l3.7 5.2c2.1 3.1 6.4 3.7 9.5 1.6l121.2-90.4-10.9-16.6zm-117 114.7c-3.3-.7-6.3-2.6-8.4-5.4l-3.6-5.5c-2.1-3.1-2.7-6.7-2-10.2.7-3.6 2.8-6.9 5.9-9L213.5 66c.8-.5 1.5-.7 2.5-.5 1 .2 1.6.7 2.1 1.4l14.8 22.3c1 1.6.6 3.5-.9 4.6l-124 92.6c-3.2 2.1-7 2.7-10.3 2z"/><path clip-path="url(#b)" fill="#F3F3F3" d="M214.7 73.7L93.5 164.1c-2 1.3-2.9 2.8-3.3 4.8-.3 1.6 0 3.4 1 5l3.7 5.2c2.1 3.1 6.4 3.7 9.5 1.6l121.2-90.4-10.9-16.6zm-117 114.7c-3.3-.7-6.3-2.6-8.4-5.4l-3.6-5.5c-2.1-3.1-2.7-6.7-2-10.2.7-3.6 2.8-6.9 5.9-9L213.5 66c.8-.5 1.5-.7 2.5-.5 1 .2 1.6.7 2.1 1.4l14.8 22.3c1 1.6.6 3.5-.9 4.6l-124 92.6c-3.2 2.1-7 2.7-10.3 2z"/><path clip-path="url(#b)" fill="#F3F3F3" d="M145.4 47.1c9.2 8.3 17.4 18.1 25.1 30.2l9.3 14.1 10.8-8-9.1-13.7c-7.8-11.8-13.6-23.1-17.7-34.8-3 4.8-7.1 8.4-12.7 10.7-1.8.6-3.9 1.2-5.7 1.5zm33.2 52.2c-1-.2-1.6-.7-2.1-1.4l-11.5-17c-9.6-14.5-19.3-25.3-30.7-34.4-.9-.5-1.4-1.6-1.2-2.6.2-1 .7-1.9 1.6-2.7l.4-.3c.5-.6 1.5-.7 2.2-.6 3.9.8 7.8.2 11.1-1.1 6.3-2.5 10.7-7.7 12-14.2.2-1 .7-1.6 1.4-2.1l.4-.3c1.1-.5 2.2-.6 3.1-.4 1 .2 1.8 1 2 2.1 3.9 14 10.1 27.2 19.7 41.7l10.6 16.1c1 1.6.6 3.5-.9 4.6l-16 12c-.3.3-1.1.8-2.1.6zM198.4 118.9l16.4 24.7c4.9 7.4 10.7 19.1 17.6 35.5 3-4.8 7.3-9 13.1-11.2 2.2-.9 4.4-1.5 6.5-1.7-12.7-12.8-21.2-22.6-25.8-30l-16.9-25.5-10.9 8.2zm32.8 72.2l-.3-.1c-1-.2-1.8-1-2-1.8-8.2-20-14.5-33.8-20-42.1l-18.2-27.4c-1-1.6-.6-3.5.9-4.6l16-12c.8-.5 1.5-.7 2.5-.5 1 .2 1.6.7 2.1 1.4l18.7 28.2c5.5 8.2 15.4 19.4 30.9 34.8.8.9 1 1.6.8 2.5s-.7 1.9-1.5 2.4l-.4.3c-.8.5-1.5.7-2.5.5-3.9-.8-7.8-.2-11.1 1.1-6 2.9-10.5 8.1-11.8 14.6-.2 1-.7 1.6-1.4 2.1l-.4.3c-.3.4-1.3.5-2.3.3z"/><g><defs><path id="e" d="M24.3 244.2h350v180h-350z"/></defs><clipPath id="f"><use xlink:href="#e" overflow="visible"/></clipPath><path clip-path="url(#f)" fill="#F3F3F3" d="M319.3 307.4c.3 0 .5 0 .7-.1.8-.3 1.3-1 1.4-1.9 0-1.1-.8-2.1-2-2.1-3.3-.1-5.8-2.8-5.7-6.1.1-3.3 2.8-5.8 6.1-5.7 1.1 0 2.1-.8 2.1-2 0-1.1-.8-2.1-2-2.1-5.5-.2-10.1 4.1-10.3 9.6-.1 5.6 4.2 10.2 9.7 10.4zm0 0M377.4 293.7c-.8.8-.9 2.1-.1 2.9 1.1 1.2 1.6 2.7 1.6 4.2 0 1.6-.7 3-1.9 4.1-1.1 1.1-2.6 1.6-4.2 1.6-1.6-.1-3-.7-4.1-1.9-.8-.8-2-.9-2.9-.1-.8.8-.9 2.1-.1 2.9 1.8 1.9 4.3 3.1 7 3.2 1.3 0 2.5-.1 3.7-.6 1.3-.5 2.5-1.2 3.5-2.1 1.9-1.8 3.1-4.3 3.2-7 .1-2.7-.9-5.2-2.7-7.2-.9-.7-2.1-.8-3 0zm0 0M348.7 297.8c-.7.8-.7 2.1.2 2.9 1.2 1 1.9 2.5 2 4 .1 1.6-.4 3.1-1.4 4.3-1 1.2-2.5 1.9-4 2-1.6.1-3.1-.4-4.3-1.4-.9-.7-2.1-.7-2.9.2-.7.9-.6 2.1.2 2.9 2.8 2.4 6.6 3 9.9 1.9 1.6-.6 3-1.5 4.2-2.8 1.7-2 2.6-4.6 2.4-7.2-.2-2.7-1.4-5.1-3.4-6.8-.8-.9-2.1-.8-2.9 0zm0 0M333.6 307.1c1.5.2 3 0 4.4-.5 3.5-1.2 6.2-4.4 6.6-8.3.1-1.1-.7-2.1-1.8-2.3-1.1-.1-2.1.7-2.3 1.8-.4 3.2-3.3 5.6-6.5 5.2-3.2-.4-5.6-3.3-5.2-6.5.1-1.1-.7-2.1-1.8-2.2-1.1-.1-2.1.7-2.2 1.8-.7 5.4 3.3 10.4 8.8 11zm0 0M323.2 323.1c1.4.1 2.8-.1 4-.5 1.2-.4 2.2-1 3.2-1.9 2-1.7 3.2-4.2 3.4-6.8.1-1.1-.8-2.1-1.9-2.2-1.1-.1-2.1.8-2.2 1.9-.1 1.6-.8 3-2 4s-2.7 1.5-4.3 1.4c-3.2-.2-5.7-3.1-5.5-6.3.1-1.1-.8-2.1-1.9-2.2-1.1-.1-2.1.8-2.2 1.9-.3 5.5 3.9 10.3 9.4 10.7zm0 0M340.2 294.3l.9-.3c2.2-.8 4-2.3 5.2-4.3 2.8-4.7 1.3-10.9-3.4-13.7-1-.6-2.2-.3-2.8.7-.6 1-.3 2.2.7 2.8 2.8 1.7 3.7 5.3 2 8.1-.8 1.4-2.1 2.3-3.6 2.7-1.5.4-3.1.1-4.5-.7-1-.6-2.2-.3-2.8.7-.6 1-.3 2.2.7 2.8 2.4 1.5 5 1.9 7.6 1.2zm0 0"/><g clip-path="url(#f)"><defs><path id="g" transform="rotate(160.527 338.313 329.673)" d="M278.7 270.1h119.1v119.1H278.7z"/></defs><clipPath id="h"><use xlink:href="#g" overflow="visible"/></clipPath><path clip-path="url(#h)" fill="#F3F3F3" d="M307 325.6c.1-1.1-.8-2.1-1.9-2.1-1.1 0-2.1.8-2.1 1.9-.2 3.3-2.9 5.8-6.2 5.6-3.2-.1-5.8-2.9-5.6-6.2.1-1.1-.8-2.1-1.9-2.1-1.1 0-2.1.8-2.1 1.9-.2 5.5 4 10.2 9.5 10.4 1.3.1 2.6-.1 3.8-.6 3.6-1.2 6.3-4.7 6.5-8.8zm0 0"/><path clip-path="url(#h)" fill="#F3F3F3" d="M385.4 291.7c-.1-3.9-2.4-7.5-6.1-9.3-2.6-1.2-5.6-1.3-8.3-.4-.9-1-2-1.9-3.2-2.5-3.3-1.5-7.1-1-9.9 1.1 0-.2-.1-.3-.1-.5-2.6-7.5-11-11.4-18.6-8.7-1.4.5-2.8 1.2-4 2.1-3-1.5-6.5-1.7-9.7-.6-3.5 1.3-6.3 4-7.5 7.5-2.1-.3-4.3 0-6.3.7-7.2 2.5-11 10.4-8.5 17.5v.1c-1.7 1.7-2.8 3.7-3.5 5.9-4.1-.1-8 2.1-9.9 5.9-4 .1-7.7 2.5-9.4 6.1-1.3 2.6-1.4 5.6-.5 8.2-1.1.9-1.9 2-2.5 3.2-1.1 2.3-1.3 4.9-.4 7.3.9 2.4 2.6 4.3 4.9 5.4 1.3.6 2.8.9 4.2.9 1 2.8 3.1 5.1 5.8 6.3 2.7 1.3 5.7 1.4 8.5.5.8 1.8 2.2 3.3 4.1 4.1 2.1 1 4.4 1 6.5.3.8-.3 1.5-.7 2.2-1.2 8-2.6 24.9 11 33.4 30.8 1.1 2.4 3.9 3.7 6.4 2.8l9.6-3.4c2.4-.9 3.9-3.4 3.3-6l-.3-1.4c-6-25.3-4.9-39.7 3.1-43 1.9.3 3.8.1 5.6-.5 2.7-1 5.1-3 6.5-5.8.5-1 .8-2 1-3 2.4-.8 4.3-2.6 5.5-4.9 1.2-2.5 1.3-5.4.2-7.8 1.2-1 2.1-2.2 2.8-3.5 1.3-2.6 1.4-5.5.5-8.2-1.1-2.7-2.9-4.8-5.4-6zm-78.4 9.1c.8-.6 1-1.7.6-2.5-.2-.3-.3-.7-.5-1.1-1.8-5 .9-10.5 6-12.3 1.9-.7 3.9-.7 5.9-.2.5.2 1.1.1 1.6-.3.5-.3.8-.8.9-1.4.5-2.9 2.6-5.3 5.4-6.3 2.5-.9 5.2-.5 7.4.9.8.5 1.8.4 2.5-.2 1.1-1 2.3-1.8 3.7-2.3 5.5-1.9 11.5.9 13.4 6.2.5 1.3.6 2.7.5 4.1v1.1s0 .1.1.1c.1.2.1.4.3.6.1.1.1.1.2.1l.4.4c.2.1.5.2.7.3 1.2.2 2.2 1 2.6 2.2.4 1.2.1 2.4-.7 3.4-.4.4-.6 1-.5 1.6.1.6.3 1.1.8 1.4 1 .8 1.7 1.7 2.1 2.9.9 2.4.2 5.2-1.8 7-.8.7-.9 2-.2 2.8.5.6.9 1.3 1.2 2 1.2 3.4-.6 7.1-4.1 8.3-.3.1-.7.2-1.1.3h-.2c-.4 0-.7.1-1.1.1-1.5 0-2.9-.6-4-1.5-.5-.5-1.3-.6-1.9-.4-.7.3-1.2.8-1.3 1.5-.5 2-1.5 3.7-2.9 5.1l-.6.6-.3.3c-.2.2-.4.3-.7.5-.1.1-.3.2-.5.3l-.6.3c-.4.2-.7.3-1.1.5l-.9.3c-.1 0-.2.1-.3.1-.3.1-.7.1-1 .2h-.2c-.4 0-.7.1-1.1.1h-.1c-.4 0-.8 0-1.2-.1-1.7-.2-3.4-.8-4.9-1.8-.4-.3-1-.4-1.6-.3-.1 0-.2 0-.3.1-.4.1-.8.4-1 .8-.4.6-.8 1-1.3 1.5-.4.4-.9.7-1.3 1h-.1c-.5.3-1 .5-1.5.7-4.3 1.5-8.9-.7-10.4-4.8-.6-1.6-.6-3.3-.1-4.9.2-.5.1-1.1-.2-1.6-.3-.5-.7-.8-1.3-1-3.1-.8-5.5-3-6.6-6-.2-.4-.3-.9-.4-1.3 0-.1 0-.2-.1-.3 0-.3-.1-.7-.1-1v-.4c0-.4 0-.8.1-1.1v-.2c.4-2.5 1.7-4.8 3.7-6.4zm39.9 25.6c.8-1 1.4-2 1.9-3.1 1.1.5 2.2.8 3.4.9.1.1.2.1.3.2.4.2.9.4 1.3.5-1.4 3.6-2.4 7.6-3 11.4-1.2-3.9-2.6-7.2-3.9-9.9zm-5.4 24.6c-5.8-6.2-11.7-10.1-16.1-12.4.5-.5 1-1.1 1.3-1.7.7-1.4.8-3 .3-4.5.3-.4.7-.9 1-1.3.2-.2.5-.4.7-.7 1.3.7 2.7 1.1 4.1 1.4 3.7 5.3 6.7 13 8.7 19.2zm-35.2-2.3c-1.4-.7-2.3-2-2.4-3.5-.1-.7-.5-1.3-1.1-1.7-.5-.3-1.1-.3-1.6-.1-.1.1-.3.1-.4.2-2.2 1.3-4.8 1.5-7.1.5-2.1-1-3.6-2.9-4-5.2-.1-.5-.4-1-.9-1.3-.5-.3-1-.4-1.6-.3-1.2.3-2.5.1-3.6-.4-1.3-.6-2.3-1.7-2.8-3.1-.5-1.4-.4-2.8.2-4.1.5-1 1.3-1.9 2.4-2.5.5-.3.8-.7 1-1.2.1-.5.1-1.1-.2-1.6-1.1-1.9-1.2-4.2-.2-6.1 1.2-2.6 4-4.1 6.9-3.8.9.1 1.8-.5 2.1-1.4.1-.3.2-.5.3-.8 1.1-2.2 3.3-3.6 5.7-3.8v.2c0 .5.1 1 .1 1.5 0 .2 0 .4.1.5.1.7.3 1.4.5 2 1.3 3.6 4 6.5 7.5 8-.3 1.9-.1 3.8.6 5.6.1.4.3.8.5 1.1.1.1.1.2.2.4s.2.5.4.7c.1.1.2.3.3.4.1.2.3.4.4.6.1.1.2.3.3.4.1.2.3.3.4.5l.4.4.4.4c.1.1.3.2.4.3.2.1.3.3.5.4.1.1.3.2.4.3.2.1.3.2.5.3.2.1.3.2.5.3.2.1.3.2.5.3.2.1.3.1.5.2s.4.2.5.2c.2.1.4.1.5.2.2 0 .4.1.6.2.2.1.4.1.5.1.2 0 .4.1.6.1.2 0 .4.1.6.1.2 0 .4.1.6.1H320.1c.2 0 .4 0 .6-.1.2 0 .4-.1.6-.1.2 0 .4-.1.6-.1.2 0 .4-.1.6-.1.1 0 .3-.1.4-.1.1.4 0 .8-.2 1.2-.3.7-1 1.1-1.8 1.1-.6 0-1.1.3-1.4.7-.4.4-.5 1-.5 1.5v1.2c-.1.4-.2.8-.4 1.2-.8 1.6-2.4 2.6-4.2 2.5-1.1 0-2 .8-2.1 1.8 0 .5-.2 1-.4 1.5-.3.5-.7 1-1.2 1.4-.9 1.3-2.8 1.6-4.4.8zm55.3 26.5l.3 1.4c.1.5-.2 1-.7 1.2l-9.6 3.4c-.5.2-1.1-.1-1.3-.5-7.8-17.9-22.9-32.3-33.8-33.4.2 0 .3-.1.5-.1.1 0 .3-.1.4-.1.2-.1.4-.1.5-.2.1-.1.3-.1.4-.1.2-.1.3-.2.5-.3.1-.1.2-.1.4-.2s.3-.2.5-.3c.1-.1.2-.1.4-.2l.4-.4.3-.3c.2-.2.3-.3.4-.5l.2-.2c.2-.2.3-.4.5-.7 0-.1.1-.1.1-.1.2-.3.4-.6.5-.9.1-.2.2-.5.3-.8 5.2 2.7 14.5 8.7 21.9 19.9.5.8 1.6 1.1 2.5.7.9-.4 1.4-1.4 1.2-2.4-.2-.8-4.3-17.2-10.8-28.4.1 0 .3-.1.4-.1.3-.1.6-.1 1-.2.2-.1.4-.1.6-.2.2-.1.4-.1.6-.2.1 0 .2-.1.3-.1l.6-.3c.3-.1.6-.3.8-.4l.6-.3c.3-.2.6-.3.8-.5.1-.1.2-.1.3-.2 2.5 5.4 5.1 12.9 5.7 21 .1 1.1 1 1.9 2.1 1.9s2-.9 2-2c0-.1.2-12.9 3.6-22.7 0 0 .1 0 .1.1.3.3.7.5 1.1.7.4.2.7.3 1.1.4.2 0 .4 0 .6.1.2 0 .4.1.6.1h1.2c.4 0 .8-.1 1.1-.3.3.3.7.6 1.1.9-11 9.1-4.6 36.3-2.3 45.8zm24.9-71.2c-.6 1.2-1.6 2.3-2.8 2.9-.5.3-.9.8-1 1.3-.1.6 0 1.2.3 1.6 1.2 1.6 1.3 3.7.5 5.5-.8 1.6-2.3 2.7-4 3.1-.9.2-1.6 1-1.7 1.9 0 1-.3 2-.7 2.9-1.5 3.1-5 4.7-8.3 4-.5-.1-1-.3-1.5-.5-1-.5-1.8-1.1-2.5-2-.2-.2-.4-.3-.6-.5-.1 0-.1-.1-.2-.1-.2-.1-.3-.1-.5-.2H362.9c-.1 0-.2 0-.2.1h-.1c-.2.1-.3.1-.5.2-.1 0-.2.1-.2.1-.5.3-1 .3-1.6.2-.1 0-.2 0-.3-.1-.2-.1-.3-.2-.5-.3l-.1-.1c-.1-.1-.2-.2-.3-.4-.2-.3-.3-.6-.3-.9v-.3c.6-.3 1.1-.7 1.5-1.1.1-.1.2-.3.4-.4l1-1c.1-.2.3-.4.4-.6.2-.3.4-.7.6-1 .1-.2.2-.5.3-.7.2-.4.3-.7.4-1.1.1-.2.1-.5.2-.7.1-.4.1-.8.2-1.2 0-.2.1-.5.1-.7v-1.3-.6c-.1-.6-.2-1.3-.5-1.9-.2-.6-.5-1.2-.8-1.8 2.2-2.8 2.9-6.6 1.7-10-.4-1.3-1.1-2.4-2-3.4.7-1.4 1-2.9.8-4.4-.1-.5-.2-1-.4-1.5s-.4-.9-.6-1.3c-.1-.1-.2-.2-.3-.4-.2-.3-.4-.5-.6-.8l-.4-.4c-.2-.2-.4-.4-.7-.6-.2-.1-.3-.2-.5-.3-.1-.1-.3-.2-.4-.3 1.6-2.1 4.5-2.9 6.9-1.8 1 .5 1.9 1.3 2.4 2.3.3.5.7.8 1.2 1 .5.1 1.1.1 1.6-.2 1.9-1.1 4.3-1.2 6.3-.3 2.6 1.2 4 3.9 3.7 6.7-.1 1 .5 1.9 1.4 2.2.3.1.5.2.8.3 1.6.8 2.8 2.1 3.4 3.7.5 1.8.4 3.6-.4 5.2zm0 0"/></g><g clip-path="url(#f)"><defs><path id="i" d="M14.2 294.7h138.9v138.2H14.2z"/></defs><clipPath id="j"><use xlink:href="#i" overflow="visible"/></clipPath><path clip-path="url(#j)" fill="#F3F3F3" d="M147.9 356.7c4.7-6 2.7-11.7 1.1-13.7-3.5-5.3-8.4-8.5-14.4-9.7-.5-.1-1-.1-1.4-.2.6-.5 1.2-1.1 1.8-1.6 4.1-3.8 6-8 5.8-12.2-.3-6.5-5.8-10.8-6-10.9l-.1-.1c-9.5-6.5-20.2 1.4-20.7 1.7l-.4.4c-.2.2-.3.4-.5.7-1-5.4-3.9-9.6-8.6-12.7-1.1-.9-8.1-6.1-16.3-1.9-1 .5-1.9 1.2-2.8 1.9-2.4-.7-5.1-.9-7.7 0-3.6 1.3-5.9 4.3-6.3 8.2-.4 4.1 1.7 8.1 5.3 10.1 3.3 1.9 7.2 5.3 10.8 11.7-2.2-.1-4.2.1-6.2.8-11.8 4.2-58.3 72.4-66.5 94.5-.7 1.9-.3 3.8.9 5.1.8.8 2 1.3 3.2 1.3.6 0 1.3-.1 1.9-.3 22.3-8.3 90.7-54.6 94.9-66.2.6-1.6.8-3.2.8-4.9 6.4 3.1 9.7 6.1 11.5 8.5 2.5 3.5 6.7 5.7 10.8 5.7h.1c3.4 0 6.5-1.6 8.3-4.3 2.8-4 1.8-8.3.3-11.2 0-.3.2-.5.4-.7zm-2.7-11c.3.4 2.4 3.4-.7 7.8l-.3-.3c-.2-.2-.3-.4-.5-.6-.4-.5-.9-1-1.3-1.4l-.4-.4c-7.2-7.1-15.5-9.3-23-9.3-2.7 0-5.2.3-7.6.7.2-.1.5-.2.8-.3.4-.2.7-.3 1.1-.5.4-.2.8-.3 1.2-.5.3-.1.7-.3 1.1-.4.6-.2 1.3-.5 2-.7.4-.1.8-.3 1.2-.4.4-.1.8-.2 1.2-.4.5-.1.9-.2 1.4-.4.5-.1.9-.2 1.4-.3.6-.1 1.3-.2 1.9-.4.4-.1.7-.1 1-.1 2.7-.4 5.4-.4 8 .1 4.8.9 8.6 3.4 11.5 7.8zm-28.3-32.1c1.3-.9 8.8-5.6 15-1.5.4.3 3.9 3.4 4.1 7.5.1 2.8-1.3 5.8-4.4 8.6-1.8 1.7-3.9 3.4-6.4 5-.3 0-.6.1-.9.1-.6.1-1.3.2-1.9.3-.5.1-.9.2-1.3.3-.5.1-1 .2-1.5.4-.5.1-.9.2-1.4.4-.5.1-.9.3-1.4.4-.5.2-.9.3-1.4.5-.4.1-.8.3-1.2.4-.5.2-.9.4-1.4.5-.3.1-.6.2-.9.4-2 .8-3.9 1.7-5.6 2.6h-.1c1.4-2.6 2.9-5.7 4.2-9.1.1-.2.2-.4.2-.6l.6-1.8c.1-.3.2-.7.3-1 .2-.6.3-1.2.5-1.8.1-.4.2-.7.3-1.1.1-.6.3-1.2.4-1.8.1-.4.1-.8.2-1.2.1-.6.2-1.2.2-1.8 0-.2.1-.4.1-.6 1.2-1.9 2.4-3.6 3.7-5.1zm-26.7-13c5.9-2.9 11 1.3 11.3 1.4.1.1.2.1.2.2 3.7 2.4 5.9 5.6 6.7 9.8.3 1.8.4 3.7.2 5.6v.2c-.3 3.7-1.3 7.4-2.7 10.9.1-2.2 0-4.5-.4-6.8v-.2l-.3-1.5c-.1-.3-.1-.6-.2-.9-.1-.2-.1-.5-.2-.8-.1-.4-.2-.8-.4-1.2 0-.1-.1-.2-.1-.3-1.1-3.2-2.9-6.4-5.6-9.4-.1-.1-.1-.2-.2-.2l-1.2-1.2-.6-.6c-.3-.3-.6-.6-1-.9-.6-.5-1.3-1.1-2-1.6-.2-.2-.6-.5-1.2-.9-.5-.5-1.3-1-2.3-1.6.1 0 .1 0 0 0zm-11.4 12.1c-2-1.2-3.2-3.4-2.9-5.7.1-1 .6-3.3 3.2-4.2.8-.3 1.5-.4 2.3-.4 1.2 0 2.5.3 3.6.7h.1c.4.1.8.3 1.2.5.2.1.4.2.5.3.3.2.6.3.9.5.1.1.2.1.3.2 1.2.7 2.2 1.5 2.7 1.9.1.1.1.1.2.1.1.1.1.1.2.1 1 .7 1.9 1.5 2.8 2.3.2.2.4.5.7.7.6.6 1.2 1.2 1.7 1.9.2.3.4.6.6.8.5.6.9 1.3 1.3 2 .2.3.3.5.5.8.4.8.8 1.6 1.2 2.5.1.1.1.3.2.4 1.6 4.3 2 9.3 1.1 14.8-.6 3.8-1.8 7.3-2.9 9.9-.4-1.4-.8-2.7-1.2-4-.1-.2-.1-.4-.2-.6-.4-1.2-.8-2.3-1.2-3.4-.1-.2-.1-.4-.2-.6-5.3-12.5-11.7-18.6-16.7-21.5zm32.3 49.3c-1.2 3.5-9.9 11-21.7 19.8-.2-.1-.4-.2-.6-.2-3.8-.4-8.7-2.4-11.1-5.8-.7-1-2.2-1.3-3.2-.6-1.1.7-1.3 2.2-.6 3.2 2.6 3.6 6.7 5.9 10.6 7-7.4 5.3-15.6 10.9-23.7 16.3-.3-.3-.8-.5-1.2-.6-2.4-.3-5.4-1.5-6.9-3.6-.7-1.1-2.2-1.3-3.2-.6-1 .7-1.3 2.2-.6 3.2 1.7 2.4 4.4 3.9 6.9 4.8-15 9.5-29.1 17.6-36.7 20.4H19v-.1c1.9-5 5.3-11.8 9.7-19.3.1.1.1.2.2.2 1.7 1.2 3.4 2.3 5.3 3.2.3.1.7.2 1 .2.9 0 1.7-.5 2.1-1.3.6-1.2.1-2.5-1.1-3.1-1.6-.7-3.1-1.6-4.5-2.7-.2-.2-.5-.3-.7-.3 5.4-9.1 11.9-19 18.5-28.5.9 2.3 2.3 4.6 4.5 6.1.4.3.9.4 1.3.4.7 0 1.4-.3 1.9-1 .7-1 .5-2.5-.6-3.2-2.1-1.5-3.3-4.6-3.6-6.9 0-.1-.1-.2-.1-.4 5.1-7.2 10.2-13.9 14.7-19.6 1.1 3.8 3.3 8 7 10.6.4.3.9.4 1.3.4.7 0 1.4-.3 1.9-1 .7-1 .5-2.5-.6-3.2-3.4-2.4-5.4-7.3-5.8-11.1 0-.1-.1-.2-.1-.3 5.2-6.2 9.3-10.4 11.4-11.1 1.1-.4 2.3-.6 3.6-.6 1.2 0 2.4.2 3.6.5 1 2.3 2 4.8 2.8 7.5.1.2.1.4.2.5.4 1.1.7 2.3 1 3.5.1.3.1.5.2.8.4 1.4.7 2.8 1 4.3 0 .1.1.2.1.3 0 .1.1.2.1.3v.1c0 .1.1.1.1.2v.1l.2.2.2.2c.1 0 .1.1.2.1h.1c.1 0 .1 0 .2.1.1 0 .1 0 .2.1.1 0 .1.1.2.1 1.3.3 2.6.7 3.9 1.1.3.1.6.2.8.2 1 .3 2 .6 2.9.9.2.1.5.1.7.2 1 .3 2 .6 2.9 1 .2.1.3.1.5.2 1.1.4 2.1.8 3.1 1.2.4 2.1.2 3.9-.4 5.6zm32.1 3.9c-1.3 1.9-3.2 2.3-4.6 2.3h-.1c-2.6 0-5.3-1.4-7-3.8-3.2-4.4-8.9-8.3-17-11.7-.1 0-.2-.1-.3-.1-.7-.3-1.4-.6-2.2-.9-.6-.2-1.3-.5-2-.7-.7-.2-1.4-.5-2.1-.7-1-.3-2-.6-3-1-.4-.1-.7-.2-1.1-.4.2-.1.4-.1.6-.2h.2c7.2-2.6 19.6-5.2 30.3 2.3.6.4 1.1.8 1.6 1.3.3.2.5.4.8.6 1.6 1.4 3.2 3.1 4.8 5.1l.3.4c.9 1.1 2.9 4.4.8 7.5zm0 0"/><path fill="#F3F3F3" d="M107.7 361.2c-4.7-1.8-9.1-5.1-13.1-9.6-.8-1-2.3-1.1-3.3-.3s-1.1 2.3-.2 3.3c4.4 5.2 9.5 8.9 14.9 11 .3.1.5.2.8.2.9 0 1.8-.6 2.2-1.5.5-1.3-.1-2.6-1.3-3.1zm0 0"/></g></g><g><defs><path id="k" d="M77.3 484.2h243v197h-243z"/></defs><clipPath id="l"><use xlink:href="#k" overflow="visible"/></clipPath><path clip-path="url(#l)" fill="#F3F3F3" d="M250.6 554.6c0-5.1-4.1-9.2-9.2-9.2h-42.8l52 40v-30.8zm-6.2 18.4l-27.8-21.4h24.7c1.7 0 3.1 1.4 3.1 3.1V573zm0 0M226 625.2h-67.5c-8.5 0-15.3 6.9-15.3 15.3h6.1c0-5.1 4.1-9.2 9.2-9.2H226c5.1 0 9.2 4.1 9.2 9.2h6.1c.1-8.4-6.8-15.3-15.3-15.3zm0 0M226 606.8h-67.5c-5.1 0-9.2-4.1-9.2-9.2h-6.1c0 8.5 6.9 15.3 15.3 15.3H226c8.5 0 15.3-6.9 15.3-15.3h-6.1c0 5.1-4.1 9.2-9.2 9.2zm0 0"/><path clip-path="url(#l)" fill="#F3F3F3" d="M292.9 626.5c-6.5-10.8-13.3-22.7-14.8-35H272c-.5 3.1-1.6 8.3-3.1 12.3v-58.3c0-8.5-6.9-15.3-15.3-15.3h-70.5v-21.5h-55.2v21.8c-7 1.4-12.3 7.6-12.3 15v138c0 8.5 6.9 15.3 15.3 15.3h122.7c6.6 0 12.2-4.2 14.3-10.1 2.3.5 4.7.9 7.1.9 16.9 0 30.7-13.7 30.7-30.6.1-11.5-6.2-21.7-12.8-32.5zM170.8 514.8h6.1v15.3h-6.1v-15.3zm-12.2 0h6.1v15.3h-6.1v-15.3zm-12.3 15.3v-15.3h6.1v15.3h-6.1zM134 514.8h6.1v15.3H134v-15.3zm119.6 177.9H131c-5.1 0-9.2-4.1-9.2-9.2v-138c0-5.1 4.1-9.2 9.2-9.2h122.7c5.1 0 9.2 4.1 9.2 9.2v71.4c-1.8 3.2-3.7 6.3-5.5 9.4-6.6 10.9-12.9 21.2-12.9 32.6 0 12.3 7.3 22.9 17.8 27.8-1.4 3.5-4.7 6-8.7 6zm21.5-9.2c-13.5 0-24.5-11-24.5-24.5 0-9.7 5.8-19.3 12-29.4 4.5-7.4 9.4-15.5 12.6-24.6 3.2 9.1 8.1 17.1 12.6 24.6 6.2 10.1 12 19.7 12 29.4-.2 13.4-11.2 24.5-24.7 24.5zm0 0"/><path clip-path="url(#l)" fill="#F3F3F3" d="M287.4 658.9c0 6.8-5.5 12.3-12.3 12.3v6.1c10.1 0 18.4-8.3 18.4-18.4h-6.1zm0 0M131 545.4h6.1v6.1H131zM143.2 545.4h6.1v6.1h-6.1zM155.5 545.4h6.1v6.1h-6.1zM131 677.3h6.1v6.1H131zM143.2 677.3h6.1v6.1h-6.1z"/></g><g><defs><path id="q" d="M86.3 735.2h225v219h-225z"/></defs><clipPath id="r"><use xlink:href="#q" overflow="visible"/></clipPath><g clip-path="url(#r)"><defs><path id="s" transform="rotate(-79.741 200.724 853.65)" d="M92.9 745.8h215.6v215.6H92.9z"/></defs><clipPath id="t"><use xlink:href="#s" overflow="visible"/></clipPath><path clip-path="url(#t)" fill="#F3F3F3" d="M111.5 897.6l6.8-37.6-6.8-1.2-6.8 37.6c-2.7 15.1 7.3 29.6 22.4 32.3l1.2-6.8c-11.3-2.2-18.9-13-16.8-24.3z"/><path clip-path="url(#t)" fill="#F3F3F3" d="M288.9 912.2L263 892.3c-2.9-11.3-9.3-21.2-18.7-28.4-7-5.4-14.9-8.8-23.3-10.2 6.7-6 15.1-9.9 24.3-11.1 12-1.5 23.9 1.6 33.4 9 9.6 7.4 15.7 18 17.3 30 1.3 10.9-1.2 21.6-7.1 30.6zm-31.7 20c5.5-9 8-19.4 7.4-29.9l20.1 15.4c-7.2 7.9-17 13-27.5 14.5zM185 941c-9.6-7.4-28.2-30.3-10.2-60.5l71.4 55c-24.2 24.4-51.7 12.9-61.2 5.5zm-60.4 1.3c-22.6-4.1-37.7-25.8-33.6-48.5l9.9-54.7L183 854l-1.7 9.6c-31.8 25-18.3 58.5-16.2 63.2-9.6 12.2-25.2 18.3-40.5 15.5zm35.9-198.4c22.6 4.1 37.7 25.8 33.6 48.5l-9.9 54.7-82.1-14.9 9.9-54.7c4.1-22.6 25.9-37.7 48.5-33.6zm60.1 116.8c7 1.5 13.7 4.2 19.5 8.7 9.6 7.4 15.7 18 17.3 30 1.4 10.8-1.1 21.5-7 30.6L179 875c7.2-8 23.8-18.1 41.6-14.3zm82.2 20.1c-1.8-13.8-8.9-26.1-19.9-34.6-11.1-8.5-24.7-12.2-38.5-10.4-12.7 1.7-24.1 7.8-32.5 17.4-5-.6-17 2.2-22.7 5.5l11.8-65.1c4.7-26.4-12.9-51.8-39.3-56.6-26.4-4.8-51.8 12.8-56.6 39.2l-21 116.3c-4.8 26.4 12.8 51.8 39.2 56.6 16.9 3.1 34.1-3.1 45.3-15.9 3.2 5 7.3 9.5 12.1 13.3 28.7 22.5 62.4 5.4 71-7 15.9-.2 31-7.7 40.7-20.2 8.5-11.1 12.2-24.7 10.4-38.5z"/></g></g><g><defs><path id="u" d="M87.3 1007.2h223v202h-223z"/></defs><clipPath id="v"><use xlink:href="#u" overflow="visible"/></clipPath><path clip-path="url(#v)" fill="#F3F3F3" d="M316.6 1157.5l-129.4 40.4v-51.4l129.4-40.4v51.4zm-138 38.9l-51.8-29.6v-50.5l51.8 29.6v50.5zm-16.6-76.6c.8 1.3 2.2 2 3.6 2 .3 0 .7 0 1.1-.1l14.5-3.6 12.4 7.5c.7.4 1.5.6 2.2.6 1.5 0 2.9-.7 3.7-2.1 1.2-2 .6-4.7-1.5-5.9l-5-3 16.6-4.1 9.9 5.9c.7.4 1.5.6 2.2.6 1.5 0 2.9-.7 3.7-2.1 1.2-2 .6-4.7-1.5-5.9l-2.5-1.5 16.6-4.2 7.4 4.4c.7.4 1.5.6 2.2.6 1.5 0 2.9-.7 3.7-2.1 1.2-2 .6-4.7-1.4-5.9l16.6-4.2 4.8 2.9c.7.4 1.5.6 2.2.6 1.5 0 2.9-.7 3.7-2.1.8-1.3.7-2.8.1-4.1l16.8-4.2 16.2 9.2-126.8 39.6-49.6-28.4 41.5-11.1-12.9 15.5c-1.4 1.6-1.5 3.6-.5 5.2zm66.1-70.6c2.7-3.2 6.6-5.1 10.8-5.1 2.2 0 4.3.5 6.3 1.5l12.7 6.3-.9 2.2-41.9 25.1c-2 1.2-2.7 3.9-1.5 5.9.8 1.4 2.2 2.1 3.7 2.1.8 0 1.5-.2 2.2-.6l43.1-25.9c.8-.5 1.4-1.2 1.8-2.1l1.1-2.8 31 15.5c1.7.8 2.7 2.5 2.7 4.4 0 2.3-1.5 4.2-3.7 4.8l-2.1.5-116.1 29 50.8-60.8zm75.6-38.3c1-.8 2.2-1.2 3.4-1.2h4c3 0 5.5 2.5 5.5 5.5 0 2.5-1.6 4.6-4 5.3l-31 8.9c-.1-.2-.3-.3-.4-.5l22.5-18zm21.2 87.7l-.3-.6c-.2-.3-.5-.6-.8-.9-.1-.1-.2-.3-.3-.4-.1 0-.1 0-.2-.1l-.2-.2-19.4-11.1c2.6-2.5 4.3-5.9 4.3-9.7 0-5.2-2.9-9.8-7.5-12.1l-31.6-15.8 3.7-9.2 2.5-1.2c1.3.8 2.8 1.2 4.3 1.2.8 0 1.6-.1 2.4-.3l33.3-9.5c6-1.7 10.3-7.3 10.3-13.6 0-7.8-6.4-14.2-14.2-14.2h-4c-3.2 0-6.4 1.1-8.8 3.1l-24.2 19.4c-2 1.6-3 3.9-3.1 6.3l-3.8 1.9c-.9.5-1.7 1.3-2.1 2.3l-4 10-12.1-6c-9.2-4.6-21-2.1-27.6 5.8l-36.8 44.1-63.4 16.9-.6.3c-.1.1-.3 0-.4.1-.1 0-.1.1-.2.2-.5.4-1 .8-1.3 1.4 0 .1-.1.1-.1.2-.3.5-.4 1.1-.5 1.8 0 .1-.1.2-.1.3v60.4c0 1.5.8 3 2.2 3.7l60.4 34.5c.7.4 1.4.6 2.1.6.4 0 .9-.1 1.3-.2l138.1-43.1c1.8-.6 3-2.2 3-4.1v-60.4c0-.1-.1-.3-.1-.4 0-.6-.1-1-.2-1.4z"/></g><g><defs><path id="w" d="M93.3 1251.2h212v147h-212z"/></defs><clipPath id="x"><use xlink:href="#w" overflow="visible"/></clipPath><path clip-path="url(#x)" fill="#F3F3F3" d="M263 1388.5v-5.5h27.6c4.6 0 8.3-3.7 8.3-8.3v-44.2c0-4.6-3.7-8.3-8.3-8.3h-77.4c-4.6 0-8.3 3.7-8.3 8.3v44.2c0 4.6 3.7 8.3 8.3 8.3h27.7v5.5h-47v-2.8c0-4.6-3.9-8.3-8.5-8.3H176l-28.4-46.2c1.2-1.8 2-4 2-6.3 0-.7-.1-1.3-.2-2l11.6-21.2c1.1 5.3 4 10 8.4 13.3l1.8 1.3 6.8-6.1c1.5.5 3 .8 4.6.8 7.6 0 13.8-6.2 13.8-13.8 0-1-.2-2-.4-3l6.8-6.1-1.1-2c-4-6.8-11.3-11.1-19.1-11.1-.5 0-1 0-1.5.1l-9.3-9.3-20.5 17.1 3.8 5.1-18.2 26c-5.3.8-9.3 5.4-9.3 10.9 0 4.1 2.3 7.7 5.7 9.6l22.9 42.9h-9.4c-4.6 0-8.1 3.7-8.1 8.3v2.8h-11.1v16.6h8.3v30.4h5.5v-30.4h5.5v30.4h5.5v-30.4H274v30.4h5.5v-30.4h5.5v30.4h5.5v-30.4h8.3v-16.6H263zm-52.6-58.1c0-1.5 1.2-2.8 2.8-2.8h77.4c1.5 0 2.8 1.2 2.8 2.8v35.9h-82.9v-35.9zm30.5 47h-27.7c-1.5 0-2.8-1.2-2.8-2.8v-2.8h82.9v2.8c0 1.5-1.2 2.8-2.8 2.8h-49.6zm16.5 5.6v5.5h-11.1v-5.5h11.1zm-74-77.5l7.4-6.6c-.8 3.6-3.8 6.3-7.4 6.6zm-.8-24.8c5.1 0 10 2.4 13.1 6.5l-24.7 22c-3.2-3.1-5-7.3-5-11.8 0-9.3 7.5-16.7 16.6-16.7zm-11.2-7.3l3.3 3.3c-5.6 2.1-10.1 6.5-12.4 11.9l-3.5-4.7 12.6-10.5zm-12.9 19.3l.6.8-12.8 23.5c-.9-.9-2.1-1.7-3.3-2.2l15.5-22.1zm-25.5 32.2c0-3 2.5-5.5 5.5-5.5 3.1 0 5.5 2.5 5.5 5.5 0 3.1-2.5 5.5-5.5 5.5s-5.5-2.4-5.5-5.5zm7.1 10.9c1.1-.2 2.2-.5 3.2-1l26.2 42.6h-7.2l-22.2-41.6zm6.6 47.2h38.7c1.5 0 2.9 1.2 2.9 2.8v2.8h-44.2v-2.8c0-1.6 1.1-2.8 2.6-2.8zm146.7 16.6H133v-5.5h160.4v5.5zm0 0"/></g><g><defs><path id="y" d="M108.3 1437.2h181v246h-181z"/></defs><clipPath id="z"><use xlink:href="#y" overflow="visible"/></clipPath><path clip-path="url(#z)" fill="#F3F3F3" d="M179.7 1653.5h-19.2l114.9-89h19.2l-114.9 89zm127.1 0h-19.2l-47.3-36.7 9.6-7.4 56.9 44.1zm-134.1-89h19.2l35.2 27.3-9.6 7.4-44.8-34.7zm89.6 0l-28.6 22.2-28.6-22.2h57.2zm-117.6-8.1v-16.2h178v16.2h-178zm16.2-137.5h8.1v113.3h-8.1v-113.3zm16.2 97.1h113.3v16.2H177.1V1516zm0-89h113.3v80.9H177.1V1427zm121.3-8.1h8.1v113.3h-8.1v-113.3zm32.4 145.6v-32.3h-16.2v-121.4h-24.3v8.1H177.1v-8.1h-24.3v121.4h-16.1v32.3h22.9l51.3 39.8-74 57.3h45.6l51.2-39.6 51.2 39.6h45.6l-74-57.3 51.4-39.8h22.9z"/></g><g><defs><path id="A" d="M85.3 1725.2h228v178h-228z"/></defs><clipPath id="B"><use xlink:href="#A" overflow="visible"/></clipPath><path clip-path="url(#B)" fill="#F3F3F3" d="M303 1883.9h4.4c2 0 3.7 1.7 3.7 3.7v3.7c0 2-1.7 3.7-3.7 3.7h-47.9c-2 0-3.7-1.7-3.7-3.7v-3.7c0-2 1.7-3.7 3.7-3.7H270l-9.7-51.5h33l9.7 51.5zm-61.8-51.5h11.6l3.3 17.7c-8-2.2-14.1-9.2-14.9-17.7zm-40.6-18.5v-66.2c0-6.1 4.9-11.1 11.1-11.1h11.1v7.4h7.4v-7.4h7.4v7.4h7.4v-7.4h7.4v7.4h7.4v-7.4h22.1c18.3 0 33.1 14.9 33.1 33.1v44.2c0 6.1-4.9 11.1-11.1 11.1h-92.1c-6.2 0-11.2-4.9-11.2-11.1zm-25.7-22.1v-7.4h-7.4v5.1l-14.7-7.4v-17.5l14.7-7.4v5.1h7.4v-7.4h18.4v36.8l-18.4.1zm147.2 22.1v-44.2c0-22.3-18.2-40.5-40.5-40.5h-70c-10.2 0-18.4 8.3-18.4 18.4h-23l-24.9 12.4v9.7H93.9v7.3h51.5v9.7l24.9 12.4h23v14.7c0 10.2 8.3 18.4 18.4 18.4h22.2c.9 13.1 10.9 23.7 23.7 25.5l3.5 18.7c-2.8-.3-11.5.2-12.6 11.1v3.7c0 6.1 4.9 11.1 11.1 11.1h47.9c6.1 0 11.1-4.9 11.1-11.1v-3.7c0-5.5-4-10.1-9.3-10.9l-8.4-44.3h2.9c10 .1 18.3-8.2 18.3-18.4z"/><path clip-path="url(#B)" fill="#F3F3F3" d="M281.6 1806.6c-2.7 0-5.2-.8-7.5-2.1l20.1-20.1c1.3 2.2 2.1 4.8 2.1 7.5 0 5.6-4.3 14.7-14.7 14.7zm0-29.5c2.7 0 5.2.8 7.5 2.1l-20.1 20.1c-1.3-2.2-2.1-4.8-2.1-7.5 0-5.9 4.5-14.7 14.7-14.7zm0-7.3c-14.2 0-22.1 11.7-22.1 22.1 0 11.8 9.8 22.1 22.1 22.1 11.8 0 22.1-9.6 22.1-22.1 0-8.9-6.5-22.1-22.1-22.1z"/></g></svg>