<svg xmlns="http://www.w3.org/2000/svg" xmlns:xlink="http://www.w3.org/1999/xlink" width="377" height="3039">
  <defs>
    <path id="a" d="M18 18h200v200H18z"/>
    <path id="c" d="M17 17h119v119H17z"/>
    <path id="e" d="M17 17h119v119H17z"/>
    <path id="g" d="M0 1h139v138H0z"/>
    <path id="i" d="M0 0h225v219H0z"/>
    <path id="k" d="M18 18h215v215H18z"/>
    <path id="m" d="M18 18h215v215H18z"/>
  </defs>
  <g fill="none" fill-rule="evenodd">
    <g transform="translate(82 -5)">
      <mask id="b" fill="#fff">
        <use xlink:href="#a"/>
      </mask>
      <path fill="#F3F3F3" fill-rule="nonzero" d="M143 184l-2-2c-1-1 0-3 1-4l8-6c2-1 4 0 5 1 1 2 0 4-1 5l-8 5-3 1zM44 22c-4 8-3 17 3 23 5 6 14 8 21 5 6-2 10-7 12-12a20 20 0 0 0-12-25l5 14v3l-1 1c-5 6-13 9-20 7h-2l-2-3-4-13zm12 36c-5-1-10-4-14-8a26 26 0 0 1 0-37l3-1 3 3 6 17c4 1 10 0 12-4l-5-18V6l3-1c8 1 15 5 20 12 4 7 5 15 3 22-2 8-8 14-15 17-6 3-11 3-16 2zm123 126a20 20 0 0 0-23 14 20 20 0 0 0 12 24l-5-14c-1-1 0-2 1-2l1-2c4-6 12-9 19-6h2l2 2 5 13c3-7 2-17-4-23-2-3-6-5-10-6zm-9 46c-7-2-13-6-17-12s-5-14-3-22a26 26 0 1 1 44 26l-3 1-3-2-6-17c-4-2-9 0-12 4l6 18-1 3-3 1h-2z" mask="url(#b)"/>
      <path fill="#F3F3F3" fill-rule="nonzero" d="M138 172l-2-2v-4l7-5c1-1 3 0 4 1v5l-7 4-2 1zm42-38c1 2 3 2 4 1l28-18 1-2v-3l-9-14c-1 1-3 2-5 1-2 0-4-1-5-3-3-4-3-7-2-11l1-4-3-10-9-14c-6-8-8-11-15-16-12-9-26-12-46-10 9 3 16 8 24 20 6 9 5 22-4 29l11 17c2 3 5 5 8 6l4 2c3 0 6 1 9 6l1 5c0 2-1 4-3 4l10 14zm0 8c-2 0-5-1-6-4l-9-14-1-5 3-4c-2-2-3-3-6-3l-4-1c-5-2-9-5-12-10l-12-19c-1-1-1-3 1-4 7-6 10-15 5-23-11-15-18-17-32-20l-5-1c-1 0-2-1-2-3s1-3 2-3c31-7 51-5 68 8 8 5 10 9 16 18l9 14c3 4 4 9 4 14v5c-1 2-1 3 1 6 2-1 4-2 5-1 2 0 3 1 4 3l10 13c1 3 2 5 1 8 0 2-2 5-4 6l-28 18c-2 3-5 3-8 2zM22 181l-2-2-6-8c-1-2-1-4 1-5s3 0 5 1l5 8c1 2 1 4-1 5l-2 1zm11-8l-3-1-5-8c-1-2-1-4 1-5 1-1 3-1 4 1l6 8c1 2 0 4-1 5h-3z"/>
      <path fill="#F3F3F3" fill-rule="nonzero" d="M135 85L14 175l-4 5 1 5 4 5c2 3 6 4 9 2l122-91-11-16zM18 199c-4 0-7-2-9-5l-3-5c-2-4-3-7-2-11 0-3 3-7 6-9l124-92h2l2 1 15 22c1 2 1 4-1 5L28 197c-3 3-7 3-10 2z"/>
      <path fill="#F3F3F3" fill-rule="nonzero" d="M65 58c10 8 18 18 26 30l9 14 11-8-10-13c-7-12-13-23-17-35a26 26 0 0 1-19 12zm34 52l-2-1-12-17C75 77 66 67 54 58l-1-3 2-3 2-1c4 1 8 1 11-1 7-2 11-7 12-14l2-2 3-1 2 2c4 14 10 28 20 42l11 16c1 2 0 4-1 5l-16 12h-2zm19 20l17 25c5 7 11 19 17 35a27 27 0 0 1 20-13c-13-13-21-22-26-30l-17-25-11 8zm33 72l-2-2c-8-20-15-34-20-42l-18-27c-1-2-1-4 1-5l16-12h2l2 1 19 28c5 8 15 20 31 35l1 3-2 2-3 1c-4-1-8 0-11 1-6 3-10 8-12 14l-1 3h-3z"/>
    </g>
    <path fill="#F3F3F3" fill-rule="nonzero" d="M305 477l2-2-2-2c-4 0-6-3-6-6s3-6 6-6c1 0 2 0 2-2l-2-2c-5 0-10 4-10 10s4 10 10 10zm57-13v3l2 4-2 4a6 6 0 0 1-8 0h-3v2l7 4 3-1 4-2c2-2 3-4 3-7s-1-5-3-7h-3zm-28 4v3l2 4-1 4-4 2-5-1h-3l1 3c2 2 6 3 10 2l4-3a10 10 0 0 0-1-14h-3zm-15 9h4c4-2 6-5 7-9l-2-2-2 2c-1 3-4 5-7 5s-5-3-5-6c0-2-1-3-2-3l-2 2c-1 6 3 11 9 11zm-11 16h4l4-2c2-2 3-4 3-7l-2-2-2 2-2 4-4 1c-4 0-6-3-6-6l-2-3-2 2c0 6 4 11 9 11zm17-29h1l5-4c3-5 2-11-3-14-1-1-2 0-3 1l1 2c3 2 4 6 2 9l-4 2h-7l1 3c2 2 5 2 7 1z"/>
    <g transform="translate(247 423)">
      <mask id="d" fill="#fff">
        <use xlink:href="#c"/>
      </mask>
      <path fill="#F3F3F3" fill-rule="nonzero" d="M45 73l-2-2-2 1c0 4-3 6-6 6s-6-3-6-6l-2-2-2 2a10 10 0 0 0 13 9c4-1 7-4 7-8z" mask="url(#d)"/>
      <mask id="f" fill="#fff">
        <use xlink:href="#e"/>
      </mask>
      <path fill="#F3F3F3" fill-rule="nonzero" d="M123 39a11 11 0 0 0-14-10l-3-2c-4-2-8-1-10 1v-1c-3-7-11-11-19-9l-4 3c-3-2-6-2-10-1-3 1-6 4-7 7l-6 1c-8 3-11 11-9 18-2 1-3 3-3 6-4 0-8 2-10 6a11 11 0 0 0-10 14 10 10 0 0 0-3 10 10 10 0 0 0 9 7c1 2 3 5 6 6h8l4 5a9 9 0 0 0 9-1c8-3 25 11 33 30 1 3 4 4 7 3l9-3c3-1 4-4 4-6l-1-2c-6-25-5-39 3-43h6a12 12 0 0 0 8-9c2-1 4-2 5-5v-8l3-3v-8c-1-3-2-5-5-6zm-78 9v-4c-2-5 1-10 6-12h6l1-1 1-1c1-3 3-5 6-6 2-1 5-1 7 1l3-1 3-2c6-2 12 1 14 6v6h1v1h1l2 2v4l-1 1 1 2c1 0 2 1 2 3 1 2 0 5-2 7v2l1 2c2 4 0 7-4 9h-2l-4-1-2-1-1 2-3 5h-1v1h-1l-1 1h-1l-1 1h-4l-5-2h-2l-1 1-1 1-1 1-2 1c-4 1-9-1-10-5v-6l-2-1c-3-1-5-3-6-6l-1-2v-3c1-2 2-5 4-6zm40 25l2-3 3 1 2 1-3 11-4-10zm-6 25c-5-6-11-10-16-12l2-2v-5l1-1 1-1 4 2 8 19zm-35-2l-2-4-1-1-2-1v1h-7c-2-1-4-3-4-5l-1-1-2-1h-3l-3-3v-4l2-3 1-1v-8c1-2 4-4 7-3l2-2v-1c1-2 4-3 6-3v2l1 2c1 3 4 6 7 8a11 11 0 0 0 1 6v1l1 1v1h1l1 1v1h1l1 1h1l1 1h8v1l-2 1-2 1v3l-1 1-4 2-2 2v2l-1 1c-1 1-3 2-5 1zm55 26l1 2-1 1-10 3h-1c-8-18-23-33-34-34h3v-1h1v-1h1v-1h1v-1l1-1c5 3 14 9 21 20l3 1 1-3c0-1-4-17-11-28h1l1-1h2l1-1 1-1c3 6 5 13 6 21l2 2 2-2a86 86 0 0 1 4-22h1l1 1h5c-11 10-5 37-3 46zm25-71l-3 3-1 1 1 2v5c-1 2-2 3-4 3l-1 2-1 3c-2 3-5 5-8 4h-2l-2-2-1-1h-2l-2 1v-1h-1v-2l1-1 1-1 1-1v-1h1v-2l1-1v-3l-1-2-1-2a11 11 0 0 0 0-13l1-4-1-2v-2h-1v-1h-1l-1-1c2-2 4-3 7-2l2 2 1 1h8c3 1 4 4 4 7l1 2h1l4 4-1 5z" mask="url(#f)"/>
    </g>
    <g transform="translate(0 464)">
      <mask id="h" fill="#fff">
        <use xlink:href="#g"/>
      </mask>
      <path fill="#F3F3F3" fill-rule="nonzero" d="M134 63c4-6 2-12 1-14-4-5-9-8-15-10h-1l2-1c4-4 6-8 5-13 0-6-5-10-6-11-9-6-20 2-20 2h-1v1c-1-5-4-9-9-13-1 0-8-6-16-1l-3 1h-7c-4 2-6 5-7 9 0 4 2 8 6 10 3 2 7 5 10 11l-6 1c-12 4-58 73-66 95-1 2-1 4 1 5l3 1h2c22-8 90-55 94-66l1-5c7 3 10 6 12 8 2 4 6 6 10 6h1c3 0 6-2 8-4 3-4 2-9 0-12h1zm-3-11s2 3-1 8v-1h-1l-1-2c-8-7-16-9-23-9a45 45 0 0 0-7 0l1-1h2l2-1 2-1h2l2-1h10c5 1 9 3 12 8zm-28-32c1-1 8-6 15-2l4 8c0 2-2 5-5 8l-6 5h-1l-2 1h-3l-1 1h-1l-2 1h-1l-1 1h-1l-6 3a79 79 0 0 0 4-10l1-2v-1l1-2v-3l1-1v-2l4-5zM76 7c6-3 11 1 11 1 4 3 6 6 7 10v6l-2 11-1-7v-3l-1-2-6-9v-1l-1-1h-1l-1-1-1-2-2-1-2-1zM65 19c-2-1-4-4-3-6 0-1 0-3 3-4l2-1 4 1a6 6 0 0 1 2 1h1v1l3 2 3 2v1l2 2h1l1 2v1l2 3c1 4 2 9 1 15l-3 10-1-4v-1l-2-3v-1c-5-12-11-18-16-21zm32 49c-1 4-10 11-22 20-4-1-9-3-11-6l-4-1v3c2 4 6 6 10 7a875 875 0 0 1-25 16c-2 0-5-1-6-3s-3-2-4-1v3c2 3 4 4 7 5-15 9-29 18-37 20 2-5 5-12 10-19l5 3 1 1 2-2c1-1 0-2-1-3l-4-3h-1l18-28 5 6h1l2-1c1-1 1-2-1-3-2-2-3-5-3-7l14-20 7 11h2l2-1-1-3c-3-3-5-7-6-11v-1c5-6 9-10 12-11h7l3 8 1 4v1l1 4v1h1v1l4 1h1l3 1h1l3 1 3 1v6zm32 4c-1 2-3 2-5 2s-5-1-7-4c-3-4-9-8-17-11l-2-1-2-1-2-1-3-1h-1c8-3 20-5 31 2l1 1 1 1 5 5c1 2 3 5 1 8z" mask="url(#h)"/>
      <path fill="#F3F3F3" fill-rule="nonzero" d="M93 67c-4-2-9-5-13-9l-3-1v4c4 5 9 9 15 11h1l2-2c0-1 0-2-2-3z"/>
    </g>
    <g fill="#F3F3F3" fill-rule="nonzero">
      <path d="M241 1665c0-6-4-10-10-10h-42l52 40v-30zm-7 18l-27-21h24c2 0 3 1 3 3v18zm-18 52h-67c-9 0-16 7-16 16h6c0-6 4-10 9-10h68c5 0 9 4 9 9l6 1c0-9-7-16-15-16zm0-18h-67c-6 0-10-4-10-9h-6c0 8 7 15 16 15h67c9 0 15-7 15-15h-6c0 5-4 9-9 9z"/>
      <path d="M283 1737c-7-11-13-23-15-35h-6l-3 12v-59c0-8-7-15-15-15h-71v-21h-55v22c-7 1-12 7-12 15v138c0 8 6 15 15 15h123c6 0 12-4 14-10l7 1c17 0 31-14 31-31 0-11-6-22-13-32zm-122-112h6v15h-6v-15zm-12 0h6v15h-6v-15zm-13 15v-15h6v15h-6zm-12-15h6v15h-6v-15zm120 178H121c-5 0-9-4-9-10v-138c0-5 4-9 9-9h123c5 0 9 4 9 9v72l-6 9c-6 11-13 21-13 33s8 23 18 28c-1 3-4 6-8 6zm21-10c-13 0-24-11-24-24 0-10 5-19 12-29 4-8 9-16 12-25 3 9 8 17 13 25 6 10 12 19 12 29 0 13-11 24-25 24z"/>
      <path d="M277 1769c0 7-5 12-12 12v6c10 0 18-8 18-18h-6zm-156-114h6v7h-6v-7zm12 0h6v7h-6v-7zm12 0h7v7h-7v-7zm-24 132h6v6h-6v-6zm12 0h6v6h-6v-6z"/>
    </g>
    <g transform="translate(87 803)">
      <mask id="j" fill="#fff">
        <use xlink:href="#i"/>
      </mask>
      <g mask="url(#j)">
        <g transform="translate(-11 -7)">
          <mask id="l" fill="#fff">
            <use xlink:href="#k"/>
          </mask>
          <path fill="#F3F3F3" fill-rule="nonzero" d="M37 170l6-38-6-1-7 37c-3 16 7 30 22 33l1-7c-11-2-19-13-16-24z" mask="url(#l)"/>
          <mask id="n" fill="#fff">
            <use xlink:href="#m"/>
          </mask>
          <path fill="#F3F3F3" fill-rule="nonzero" d="M214 184l-26-20a52 52 0 0 0-42-38 45 45 0 0 1 58-2 45 45 0 0 1 10 60zm-32 20c6-9 8-19 8-30l20 16c-7 8-17 13-28 14zm-72 9c-10-7-28-30-10-60l71 55a46 46 0 0 1-61 5zm-60 1c-23-4-38-25-34-48l10-55 82 15-2 10a52 52 0 0 0-16 63 42 42 0 0 1-40 15zM86 16c22 4 37 26 33 48l-10 55-82-15 10-54c4-23 26-38 49-34zm60 117c7 1 13 4 19 8a45 45 0 0 1 10 61l-71-55c7-8 24-18 42-14zm82 20a52 52 0 0 0-91-28c-5 0-17 2-23 6l12-65a49 49 0 0 0-96-18L9 165a49 49 0 0 0 85 40c3 5 7 10 12 14 28 22 62 5 71-7 16-1 31-8 40-21 9-11 13-24 11-38z" mask="url(#n)"/>
        </g>
      </g>
    </g>
    <path fill="#F3F3F3" fill-rule="nonzero" d="M295 1367l-130 40v-51l130-41v51zm-138 38l-52-29v-51l52 30v50zm-17-76l4 2h1l14-4 13 8h2c1 0 3 0 4-2s0-5-2-6l-5-3 17-4 10 6 2 1 3-2c2-2 1-5-1-6l-3-2 17-4 7 4 3 1 3-2c1-2 1-5-1-6l16-4 5 3h2c2 0 3 0 4-2v-4l17-4 16 9-127 40-49-29 41-11-13 16v5zm66-71a14 14 0 0 1 17-3l13 6-1 2-42 25c-2 1-3 4-1 6 0 2 2 2 3 2h3l43-26 1-2 2-3 31 15 2 5c0 2-1 4-3 5h-3l-116 29 51-61zm76-38l3-1h4c3 0 6 2 6 5s-2 5-4 6l-31 8h-1l23-18zm21 88v-1l-1-1h-1v-1l-19-11c2-2 4-6 4-9 0-6-3-10-7-12l-32-16 4-9 2-2 4 2 3-1 33-9c6-2 10-8 10-14 0-8-6-14-14-14h-4l-9 3-24 19c-2 2-3 4-3 7l-4 2-2 2-4 10-12-6c-9-5-21-2-27 6l-37 44-64 17h-1l-1 2-1 2v60l2 4 61 35h3l138-43c2-1 3-2 3-4v-62zm-53 844v-6h28c4 0 8-4 8-8v-45c0-4-4-8-8-8h-78c-4 0-8 4-8 8v45c0 4 4 8 8 8h28v6h-47v-3c0-5-4-9-9-9h-9l-28-46 2-6-1-2 12-21c1 5 4 10 8 13l2 1 7-6 5 1c7 0 13-6 13-14v-3l7-6-1-2c-4-7-12-11-19-11h-2l-9-9-21 17 4 5-18 26a11 11 0 0 0-4 21l23 42h-9c-5 0-8 4-8 9v3h-11v16h8v31h5v-31h6v31h5v-31h122v31h6v-31h5v31h6v-31h8v-16h-36zm-53-59l3-2h78l2 2v36h-83v-36zm31 47h-28l-3-2v-3h83v3c0 1-1 2-3 2h-49zm16 6v6h-11v-6h11zm-74-77l8-7c-1 4-4 6-8 7zm0-25c5 0 10 2 13 6l-25 22c-3-3-5-7-5-12 0-9 8-16 17-16zm-12-8l4 4c-6 2-10 6-13 12l-3-5 12-11zm-13 20l1 1-13 23-3-2 15-22zm-25 32c0-3 2-6 5-6 4 0 6 3 6 6s-3 5-6 5-5-2-5-5zm7 11l3-1 26 42h-7l-22-41zm7 47h38c2 0 3 1 3 3v3h-44v-3c0-2 1-3 3-3zm146 17H120v-6h160v6zm-133 868h-20l115-89h20l-115 89zm127 0h-19l-48-37 10-8 57 45zm-134-89h19l35 27-9 7-45-34zm89 0l-28 22-29-23 57 1zm-117-9v-16h178v16H112zm16-137h8v113h-8v-113zm16 97h113v16H144v-16zm0-89h113v81H144v-81zm121-8h9v113h-9v-113zm33 146v-33h-16v-121h-25v8H144v-8h-24v121h-16v32l23 1 51 39-74 58h46l51-40 51 40h46l-74-58 51-39h23z"/>
    <g fill="#F3F3F3" fill-rule="nonzero">
      <path d="M295 2581h4c2 0 4 2 4 4v3c0 2-2 4-4 4h-48c-2 0-3-2-3-4v-3c0-2 1-4 3-4h11l-10-52h33l10 52zm-62-52h12l3 18c-8-2-14-9-15-18zm-40-18v-66c0-6 5-11 11-11h11v7h7v-7h8v7h7v-7h7v7h8v-7h22c18 0 33 15 33 33v44c0 6-5 11-11 11h-92c-6 0-11-5-11-11zm-26-22v-8h-7v6l-15-8v-17l15-8v5h7v-7h18v37h-18zm147 22v-44c0-23-18-41-40-41h-70c-11 0-19 9-19 19h-23l-25 12v10H86v7h51v10l25 12h23v15c0 10 9 18 19 18h22c1 13 11 24 24 26l3 18c-3 0-11 1-12 12v3c0 6 4 11 11 11h48c6 0 11-5 11-11v-4c0-5-4-10-10-10l-8-45h3c10 0 18-8 18-18z"/>
      <path d="M274 2504c-3 0-6-1-8-3l20-20c2 3 2 5 2 8 0 6-4 15-14 15zm0-30l7 2-20 20-2-7c0-6 4-15 15-15zm0-7c-15 0-22 11-22 22 0 12 9 22 22 22 11 0 22-10 22-22 0-9-7-22-22-22z"/>
    </g>
  </g>
</svg>
