<svg xmlns="http://www.w3.org/2000/svg" xmlns:xlink="http://www.w3.org/1999/xlink" width="64" height="1716">
  <defs>
    <path id="a" d="M0 0h61v62H0z"/>
    <path id="c" d="M0 0h61v66H0z"/>
    <path id="e" d="M0 0h61v56H0z"/>
    <path id="g" d="M0 0h61v61H0z"/>
    <path id="i" d="M0 0h24v18H0z"/>
    <path id="k" d="M0 0h61v63H0z"/>
    <path id="m" d="M0 0h60v60H0z"/>
    <path id="o" d="M0 0h60v62H0z"/>
    <path id="q" d="M0 0h60v60H0z"/>
    <path id="s" d="M0 0h60v87H0z"/>
    <path id="u" d="M0 0h60v76H0z"/>
  </defs>
  <g fill="none" fill-rule="evenodd">
    <path fill="#36AD39" fill-rule="nonzero" d="M8 0h49c4 0 6 3 6 6v34c0 3-2 6-6 6H28L18 57l-1 1-1-1V47H8c-3 0-6-3-6-7V6c0-3 3-6 6-6z"/>
    <g transform="translate(2 90)">
      <mask id="b" fill="#fff">
        <use xlink:href="#a"/>
      </mask>
      <path fill="#36AD39" fill-rule="nonzero" d="M61 49l-1 2-8 9-2 1h-7l-7-2-9-5-10-9C10 39 5 31 2 22l-2-5v-6l1-1 9-9 2-1 2 1 1 1 7 13v2l-1 2-3 3v1h-1l1 3 7 9 6 5 4 2 2 1 1 1v-1l4-4 3-1 2 1 12 7c2 1 2 2 2 3z" mask="url(#b)"/>
    </g>
    <g transform="translate(2 180)">
      <mask id="d" fill="#fff">
        <use xlink:href="#c"/>
      </mask>
      <path fill="#36AD39" fill-rule="nonzero" d="M53 17v-4c0-4-2-7-8-10-5-2-12-4-18-4S13 1 8 3C3 6 0 9 0 13v2c0 4 2 8 8 10l-1 2c-5 3-8 7-8 10v2c0 3 2 6 4 8v4c0 4 3 8 8 11 5 2 12 3 19 3s13-1 18-3c5-3 9-7 9-11v-2l-4-7v-3c5-3 8-6 8-10v-2c0-4-3-7-8-10zM4 12c0-2 2-4 6-6s10-3 17-3c6 0 12 1 17 3l6 6c-3 4-13 8-23 8S6 16 4 12zm0 24c0-2 2-3 4-5 1 3 4 6 8 8 5 3 12 4 19 4h2l-10 1c-11 0-21-4-23-8zm49 12c-3 5-12 8-23 8-10 0-18-2-22-6 5 2 12 3 18 3 7 0 14-1 19-3l6-5 2 3zM34 34c-9 0-17-3-21-7 10 3 22 3 32-1l7-6 6 6c-3 4-13 8-24 8z" mask="url(#d)"/>
    </g>
    <g transform="translate(2 277)">
      <mask id="f" fill="#fff">
        <use xlink:href="#e"/>
      </mask>
      <path fill="#36AD39" fill-rule="nonzero" d="M17 8c0-4 3-8 8-8s8 4 8 8-4 8-8 8-8-4-8-8zm12 13l1-5H19l2 5 4-1 3 1h1zm1 1c2 1 4 4 4 7h3c4 0 7-3 7-7s-3-7-7-7-7 3-7 7zm-5 15c4 0 7-4 7-8s-3-7-7-7-7 4-7 8c0 3 3 7 7 7zm3 0h-6c-5 0-9 4-9 9v8c5 2 9 2 13 2 7 0 11-2 11-2v-8c0-5-4-9-9-9zm12-7h-6l-3 6c5 1 8 6 8 11v2c6 0 10-2 10-2v-8c0-5-4-9-9-9zm2-16c2 2 4 4 4 7l3 1c4 0 7-4 7-8s-3-7-7-7-7 4-7 7zm10 8h-6c0 3-1 5-3 7 5 1 8 5 8 10v2c6 0 10-1 10-2v-7c0-6-4-10-9-10zm-40 7l4-1 4-6c0-4-4-7-8-7s-7 3-7 7 3 7 7 7zm7 7l-3-6H9c-5 0-9 4-9 9v8l11 2v-3c0-5 3-9 8-10z" mask="url(#f)"/>
    </g>
    <g transform="translate(2 1655)">
      <mask id="h" fill="#fff">
        <use xlink:href="#g"/>
      </mask>
      <path fill="#36AD39" fill-rule="nonzero" d="M35 48H4c-2 0-4 2-4 5v8h40v-8c0-3-2-5-5-5zm26 1L32 21l6-6h3v-3L29 0h-3v4-1L11 18H8v4l12 11h3v-3l5-5 29 28h4v-4z" mask="url(#h)"/>
    </g>
    <g fill="#36AD39" fill-rule="nonzero">
      <path d="M24 465c2 0 4 2 4 4s-2 4-4 4-4-2-4-4 2-4 4-4zm0 10c4 0 6-3 6-6a6 6 0 1 0-12 0c0 3 3 6 6 6z"/>
      <path d="M61 496h-7v-3l-1-1H31v-8l8-4 8-7v-2l-4-3h-1l-7 6-7 3h-8l-6-5-3-8h-1l-4 1H5v1l3 9v1l9 8v8h-5l-1 1v3H3v-35h58v35zm-4 11c0 3-2 5-4 5s-4-2-4-5 2-4 4-4c3 0 4 2 4 4zm-9 7l-2-1 2-2 2 2-2 1zm-10 0l-2-1 2-2 1 2-1 1zm-11 0l-2-1 2-2 2 2-2 1zm-10 0l-2-1 2-2 2 2-2 1zm-9-7c0-2 1-4 4-4s4 2 4 4-2 5-4 5-4-2-4-5zm14 4c-2 1-4-1-4-4s2-4 4-4 4 2 4 4-2 4-4 4zm10 1c-2 0-4-2-4-5s2-4 4-4c3 0 5 2 5 4s-2 4-5 4v1zm11 0c-2 0-4-2-4-5s2-4 4-4 4 2 4 4-2 4-4 4v1zm9-18v7c-2 0-3 1-4 3-1-2-3-3-5-3l-5 3c-2-2-3-3-6-3s-4 1-5 3c-1-2-3-3-5-3l-5 3c-1-2-3-3-5-3v-7h40zm-30-15h4l-2 3-2-3zm-3 4l-8-8-3-9h2l3 7v1l6 5 4 5h2l4-5 7-3 6-6 2 2-6 6-8 5h-1v9H19v-9zm43-25H2l-1 2v37l1 1h9v3a6 6 0 1 0-3 12c-2 1-3 3-3 5v3h2v-3c0-2 2-4 5-4s4 2 4 4v3h2v-3c0-2 2-4 4-4s4 2 4 4v3h2v-3c0-2 2-4 4-4 3 0 5 2 5 4v3h2v-3c0-2 2-4 4-4s4 2 4 4v3h2v-3c0-2 2-4 4-4s4 2 4 4v3h2v-3l-2-5 2-6c0-3-2-5-5-6v-3h9l1-1v-38h-2v-1z"/>
      <path d="M34 464h24v2H34v-2zm14 4h10v2H48v-2zm1 4h9v2h-9v-2zm-4 4h13v2H45v-2zm-4 4h17v2H41v-2zm-7 4h24v3H34v-3zm14 12h2v2h-2v-2zm-4 0h2v2h-2v-2zm-4 0h2v2h-2v-2z"/>
    </g>
    <path fill="#36AD39" fill-rule="nonzero" d="M54 422H3v-44h3v2h2v-2h6v2h1v-2h6v2h2v-2h5v2h2v-2h5v2h2v-2h6v2h1c1 0 0 0 0 0v-2h6v2h2v-2h3v44h-1zm1-46h-4v-5h-2v5h-5v-5h-2v5h-5v-5h-2v5h-5v-5h-2v5h-6v-5h-2v5h-5v-5h-2v5H8v-5H6v5H3l-1 1v46l1 1h52l1-1v-46l-1-1z"/>
    <path fill="#36AD39" fill-rule="nonzero" d="M51 404H7v-5h44v5zm-45-7l-1 1v7l1 1h45l1-1v-7l-1-1H6zm2-12h13v7h-6l-1 2-1-2H8v-7zm-1 8h5l2 3h1l1-3h5l1-1v-8l-1-1H7l-1 1v8l1 1z"/>
    <path fill="#36AD39" fill-rule="nonzero" d="M20 390l1-1v-2l-1-1-1 1v3z"/>
    <g transform="translate(39 403)">
      <mask id="j" fill="#fff">
        <use xlink:href="#i"/>
      </mask>
      <path fill="#36AD39" fill-rule="nonzero" d="M7 17l-7-6V9h2l6 6L22 0h2v2L8 17z" mask="url(#j)"/>
    </g>
    <path fill="#36AD39" fill-rule="nonzero" d="M39 616c-11-6-17-16-17-26v-13h35v10h-2v-6l-2-1H25l-1 1v7c0 10 6 19 15 24v1l1-1c4-2 8-6 11-10l2 2c-3 5-8 9-14 12zm-31-7c-2 0-4-2-4-4v-3h9l1-1v-25l-1-1H4v-7h43v7H20l-1 1v14c0 7 3 13 7 19H8zm4-28H4v-4h8v4zm-8 15h8v4H4v-4zm8-9H4v-4h8v4zm-8 3h8v4H4v-4zm32-24H15v-4c0-6 5-10 10-10s11 4 11 10v4zm-27-4a16 16 0 1 1 33 0v4h-4v-4a13 13 0 0 0-25 0v4H9v-4zm34 28h9l-2 7-7-7zm9-3H39l-1 1v1l11 11c-2 4-5 7-10 10-7-5-12-13-12-22v-6h25v5zm5 3c0 4-1 8-3 11l-2-2 2-9h3zm4 18l-5-5c2-4 4-8 4-13h2v-3h-2v-11l-1-2h-9v-7l-2-1h-4v-4c0-11-8-19-19-19s-19 8-19 19v4H3l-1 1v38c0 4 3 6 6 6h21l10 8h1c1 0 0 0 0 0 7-4 12-8 15-13l4 4h-4v2h7l1-1v-7h-2v4z"/>
    <g transform="translate(2 1562)">
      <mask id="l" fill="#fff">
        <use xlink:href="#k"/>
      </mask>
      <path fill="#36AD39" fill-rule="nonzero" d="M45 61l2-7 8 3 4 4H45zm-8 0l1-11 7 3-3 8h-5zm-18 0l-3-8 7-3 1 11h-5zM6 57l8-3 2 7H3c0-2 2-3 3-4zm13-20V26h3c3 0 6 1 8 3l1 1 1-1c3-2 6-4 10-3v11c0 6-5 10-11 10h-1c-6 0-11-4-11-10zm-3-1v-4h1v4h-1zM7 15L31 3l24 12-9 4v-4l-1-1s-4-2-10-2l-1 1 1 1 8 2v8h-3c-4 0-7 1-9 3-4-3-8-4-13-3v-8l9-2 1-1-1-1c-6 0-10 2-11 2v5l-9-4zm51 16h-1v-7l1 1v6zm-12 1v4h-1v-4h1zM35 54l-3-3h-2l-4 3v-5l4 1h1l4-1v5zm-9 7v-4l5-3 4 3-1 4h-8zm35 1v-1c0-3-2-5-5-6l-17-7c3-2 5-5 6-9h1c1 0 3-1 3-3v-3c0-2-2-3-3-3h-1v-3h1v-5l10-5v5l-2 3v7l1 1h4l1-1v-7l-2-3v-8L31 0h-1L4 14l-1 1 1 1 12 6v5h1v3h-1c-1 0-3 1-3 3v3c0 1 1 3 3 3h1c0 3 3 7 6 9L5 55c-3 1-5 3-5 6v1l1 1c1 0 0 0 0 0h60v-1z" mask="url(#l)"/>
      <path fill="#36AD39" d="M36 34l1-1-1-1-1 1zm-10-2l-2 1 2 1 1-1zm8 8l-2-2-1 1h-1l-1-1-1 2 1 1h4zm-3-26l1-1-1-2-1 2z"/>
    </g>
    <g fill="#36AD39" fill-rule="nonzero">
      <path d="M46 682h-1l-5 1h-1l-7-2h-1c-4-2-6-4-8-7l-2-3-2-7 1-3c0-3 1-5 3-8 4-5 10-8 17-8 11 0 21 8 21 19 0 6-4 12-9 15v1l2 5-8-3zm-16 1h1v1H11v-2h19v1zm-13-20h-6v-1h6v1zm2 9l1 1h-9v-1h8zm2 20l-1 1-8 8v-8l-1-1H4v-39h16l-2 7h-8l-1 1v3l1 1h7l1 5h-8l-1 1v3l1 1h11c1 2 3 4 6 5H10l-1 1v4l1 1h22l1-1v-2l5 1v8H21zm32-12c6-4 9-10 9-16 0-12-10-21-22-21-8 0-14 3-19 9H3l-1 1v40l1 1h7v9l1 1h1l10-10h17l1-1v-9h5l10 3 1 1v-1l1-1-4-6z"/>
      <path d="M56 664a1 1 0 0 0 2 0c0-3 0-5-2-8h-1v1l1 7zm-4-10l1-1v-1c-3-3-8-5-13-5a1 1 0 0 0 0 2c4 0 9 1 12 4v1zm-13 13l-2-2 2-2 2 2-2 2zm0-6a4 4 0 1 0 0 8 4 4 0 0 0 0-8zm10 6l-2-2 2-2 2 2-2 2zm4-2a4 4 0 1 0-4 4c2 0 4-2 4-4zm-25 2l-2-2 2-2 2 2-2 2zm0-6a4 4 0 1 0 0 8 4 4 0 0 0 0-8z"/>
    </g>
    <g transform="translate(2 735)">
      <mask id="n" fill="#fff">
        <use xlink:href="#m"/>
      </mask>
      <path fill="#36AD39" fill-rule="nonzero" d="M60 26l-2-1c-3 0-5-2-6-4-1-3-1-6 1-8v-2l-4-5h-3c-1 2-4 3-7 2-2-1-4-4-4-6l-2-2h-6l-2 2c0 2-1 5-4 6-2 1-5 0-7-2h-2l-5 5v2c2 2 3 5 2 8-1 2-4 4-7 4l-2 1v7l2 1c3 0 5 2 6 5s1 5-1 7v2l4 5h3c1-2 5-3 7-2 3 1 4 4 4 7l2 2h6l2-2c0-3 1-6 4-7 2-1 5 0 7 2h2l5-5v-2a7 7 0 0 1 5-12c1 1 2 0 2-1v-7zM30 40a10 10 0 0 1 0-20c6 0 10 4 10 10s-4 10-10 10z" mask="url(#n)"/>
    </g>
    <g transform="translate(2 1470)">
      <mask id="p" fill="#fff">
        <use xlink:href="#o"/>
      </mask>
      <path fill="#36AD39" fill-rule="nonzero" d="M55 13H42V7l-6-7H24l-6 6v7H6c-3 0-6 2-6 6v33c0 4 3 7 6 7h49c3 0 6-3 6-7V19c-1-4-3-6-7-6h1zm-19 0H24V7h12v6z" mask="url(#p)"/>
    </g>
    <g transform="translate(2 827)">
      <mask id="r" fill="#fff">
        <use xlink:href="#q"/>
      </mask>
      <path fill="#36AD39" fill-rule="nonzero" d="M60 22c-1-2-3-4-5-4l-15-1-5-14c-1-2-3-3-5-3s-4 1-5 3l-6 14-14 1c-3 1-4 2-5 4-1 3 0 5 2 6l11 10-4 15 1 5 5 2 3-1 12-8 12 8 3 1 5-2 1-5-4-15 11-10c2-1 2-4 2-6zm-5 3L43 36l-1 2 4 16v1h-2l-13-9h-2l-14 9h-1l-1-1 4-16-1-2L4 25v-1l1-1 16-1 2-2 6-15 1-1 1 1 6 15 2 2 16 1 1 1-1 1z" mask="url(#r)"/>
    </g>
    <path fill="#49528F" fill-rule="nonzero" d="M54 920H10c-5 0-8 3-8 8v44c0 4 3 8 8 8h22v-22h-6l-1-1v-7l1-1h6v-7c0-8 4-12 11-12h6l1 1v6l-1 1h-3c-4 0-5 2-5 5v6h8l2 1-1 7-2 1h-7v22h13c4 0 8-4 8-8v-44c0-5-4-9-8-9v1z"/>
    <g fill-rule="nonzero">
      <path fill="#E04F5F" d="M54 1195H10c-5 0-8 4-8 9v44c0 4 3 8 8 8h44c4 0 8-4 8-8v-44c0-5-3-9-8-9z"/>
      <path fill="#FFF" d="M22 1211l25 16-25 15z"/>
    </g>
    <g transform="translate(2 998)">
      <mask id="t" fill="#fff">
        <use xlink:href="#s"/>
      </mask>
      <path fill="#1A1413" fill-rule="nonzero" d="M23 71l1 2h3v4h-6c-3 0-5 3-5 6v1l2 3c1 0 3-1 3-3v-2h6v2c0 1 1 3 3 3 1 0 3-1 3-3v-2h6v2c0 1 1 3 3 3 1 0 2-1 2-3v-1c0-3-2-6-5-6h-6v-4h3l1-2v-3H23v3zm34-39h-4c-2 1-3 2-3 4v2l2 2v9h-3l-2-1V11c0-6-5-11-11-11H24c-6 0-11 5-11 11v37l-2 1H8v-9l2-2v-2c0-2-2-4-3-4H3c-2 1-3 2-3 4v2l1 2h2v12l2 2h3l-1 4v3c0 1 1 2 3 2h40l2-2v-7h2c2 0 3-1 3-2V40h1l2-2v-2c0-2-1-4-3-4z" mask="url(#t)"/>
    </g>
    <path stroke="#1A1413" stroke-width="3" d="M25 1161l1 2h3v4h-6c-3 0-5 3-5 6v1l2 3c1 0 3-1 3-3v-2h6v2c0 1 1 3 3 3 1 0 3-1 3-3v-2h6v2c0 1 1 3 3 3 1 0 2-1 2-3v-1c0-3-2-6-5-6h-6v-4h3l1-2v-3H25v3zm34-39h-4c-2 1-3 2-3 4v2l2 2v9h-3l-2-1v-37c0-6-5-11-11-11H26c-6 0-11 5-11 11v37l-2 1h-3v-9l2-2v-2c0-2-2-4-3-4H5c-2 1-3 2-3 4v2l1 2h2v12l2 2h3l-1 4v3c0 1 1 2 3 2h40l2-2v-7h2c2 0 3-1 3-2v-12h1l2-2v-2c0-2-1-4-3-4z"/>
    <g transform="translate(2 1279)">
      <mask id="v" fill="#fff">
        <use xlink:href="#u"/>
      </mask>
      <path fill="#36AD39" fill-rule="nonzero" d="M29 0A30 30 0 0 0 2 43c3 7 10 19 26 32h3c16-13 23-25 26-32l2-7 1-6C60 13 46 0 29 0zm1 45c-8 0-15-6-15-14a15 15 0 0 1 29 0c0 8-6 14-14 14z" mask="url(#v)"/>
    </g>
    <path fill="#36AD39" fill-rule="nonzero" d="M32 1379c-17 0-30 14-30 31a30 30 0 1 0 60 0c0-17-13-31-30-31zm2 48h-5l-1-3 1-3 3-1 2 1 1 3-1 3zm9-22l-2 2-4 4-1 1-1 1-1 1v2c0 1-1 2-3 2l-2-1-1-2 1-3 2-3 2-3 3-1 1-2v-2l-1-3-4-1-4 1-2 4c0 2-1 2-3 2h-2l-1-2 2-5 4-4 6-1 6 1 4 3 2 5-1 4z"/>
  </g>
</svg>
