<svg xmlns="http://www.w3.org/2000/svg" width="476" height="96"><path fill="#131614" d="M116 38l9 1 6 3 3 6 1 7v25l-7 1a70 70 0 0 1-19 1l-6-3c-1-1-3-2-3-4l-2-7 2-6 4-4 5-2 7-1h4l3 1v-1c0-2 0-4-2-5-1-2-3-2-6-2h-6l-5 2-2-10 3-1h3l4-1h4zm1 35h4l2-1v-9h-8l-2 1-2 1-1 3 2 4 5 1zm41-19l3-4 4-4 3-4 3-3h14l-8 9-9 9 5 5a106 106 0 0 1 13 19h-14l-3-4a155 155 0 0 0-7-10l-4-4v18h-12V21l12-2v35zm70 25a62 62 0 0 1-18 3l-9-1c-3-1-4-3-6-5l-3-6-1-8V39h12v22l2 8c1 2 3 3 6 3h2l3-1V39h12v40zm51-20l-2 9c0 3-2 5-3 7l-6 5-8 2-5-1-4-1v16h-12V40a68 68 0 0 1 13-2l5-1 9 2 7 4 4 7 2 9zm-13 1c0-4 0-7-2-9s-4-3-7-3h-3-3v22l3 1h4c6 0 8-3 8-11zm35-34l-2 5-5 2-5-2c-2-1-2-3-2-5s0-4 2-5c1-2 3-2 5-2l5 2 2 5zm-1 55h-12V38h12v43zm22 0a221 221 0 0 1-17-43h13l2 7a304 304 0 0 0 4 15l3 6 2-6 2-8 2-7 2-7h13a295 295 0 0 1-17 43h-9zm49 0l-8-1-5-3c-2-1-2-3-3-5l-1-6V20l12-2v46l1 3 1 2 2 2h3l-2 10zm22-55l-2 5-5 2-5-2-3-5c0-3 1-4 3-6l5-2 5 2 2 6zm-1 54h-12V38h12v42z"/><path fill="#3EAA3B" d="M431 41l-1 6-3 5-4 5-5 4-2 2-3 3-2 3-2 2h24v9h-36v-4l1-6 3-6 4-5 5-5 4-3 3-3 1-3 1-4-2-4-5-2-4 1-3 2-2 1-2 2-6-8 8-6 10-2 8 1 6 4 3 4 1 7zm39-14v32h6v10h-6v12h-11V69h-23v-9l4-8a130 130 0 0 1 19-25h11zm-11 14a277 277 0 0 0-12 18h12V41z"/><path fill="#3EAA3B" fill-rule="evenodd" d="M31 66l39-39H35V12h45l-7-5-14-6c-7-2-17-1-23 1A48 48 0 0 0 0 42l1 16 5 13c6 10 13 17 25 22 19 8 40 0 50-11H31V66zm63-29l-2-7-35 37h35l3-10c1-6 0-15-1-21z" clip-rule="evenodd"/><path fill="#131614" d="M31 66h16v16H31z"/></svg>