<svg xmlns="http://www.w3.org/2000/svg" xmlns:xlink="http://www.w3.org/1999/xlink" viewBox="0 33 83 1436">
    <path fill="#36AD39" d="M13 51h49c4 0 6 3 6 6v34c0 3-2 6-6 6H33l-10 11-1 1-1-1V98h-8c-3 0-6-3-6-7V57c0-3 3-6 6-6z"/>
    <defs>
        <path id="a" d="M7 123h61v62H7z"/>
    </defs>
    <clipPath id="b">
        <use overflow="visible" xlink:href="#a"/>
    </clipPath>
    <path fill="#36AD39"
          d="M68 172l-1 2-8 9-2 1h-7l-7-2-9-5-10-9a57 57 0 0 1-15-23l-2-5v-4-2l1-1 9-9 2-1 2 1 1 1 7 13v2l-1 2-3 3v1h-1l1 3a30 30 0 0 0 7 9l6 5 4 2 2 1 1 1v-1l4-4 3-1 2 1 12 7c2 1 2 2 2 3z"
          clip-path="url(#b)"/>
    <defs>
        <path id="c" d="M17 217h41v44H17z"/>
    </defs>
    <clipPath id="d">
        <use overflow="visible" xlink:href="#c"/>
    </clipPath>
    <path fill="#36AD39"
          d="M28 222l1 1-1 1 1 2h2l5-1h2v1h-3-1l-1 1 1 1 5-1 2 1h2v-1l-2-1 1-1-1-1-2-1h-2l-4 1h-1c-1 0 0 0 0 0l2-1h1v-1h-8z"
          clip-path="url(#d)"/>
    <defs>
        <path id="e" d="M7 214h61v66H7z"/>
    </defs>
    <clipPath id="f">
        <use overflow="visible" xlink:href="#e"/>
    </clipPath>
    <path fill="#36AD39"
          d="M60 231v-4c0-4-2-7-8-10-5-2-12-4-18-4s-14 2-19 4c-5 3-8 6-8 10v2c0 4 2 8 8 10l-1 2c-5 3-8 7-8 10v2c0 3 2 6 4 8v4c0 4 3 8 8 11 5 2 12 3 19 3s13-1 18-3c5-3 9-7 9-11v-2l-4-7v-3c5-3 8-6 8-10v-2c0-4-3-7-8-10zm-49-5c0-2 2-4 6-6s10-3 17-3c6 0 12 1 17 3l6 6c-3 4-13 8-23 8s-21-4-23-8zm0 24c0-2 2-3 4-5 1 3 4 6 8 8 5 3 12 4 19 4h2l-10 1c-11 0-21-4-23-8zm49 12c-3 5-12 8-23 8-10 0-18-2-22-6 5 2 12 3 18 3 7 0 14-1 19-3l6-5 2 3zm-19-14c-9 0-17-3-21-7a49 49 0 0 0 32-1l7-6 6 6c-3 4-13 8-24 8z"
          clip-path="url(#f)"/>
    <defs>
        <path id="g" d="M7 291h61v56H7z"/>
    </defs>
    <clipPath id="h">
        <use overflow="visible" xlink:href="#g"/>
    </clipPath>
    <path fill="#36AD39"
          d="M24 299c0-4 3-8 8-8s8 4 8 8-4 8-8 8-8-4-8-8zm12 13l1-5h-9-2l2 5 4-1 3 1zm1 1c2 1 4 4 4 7h3c4 0 7-3 7-7s-3-7-7-7-7 3-7 7zm-5 15c4 0 7-4 7-8s-3-7-7-7-7 4-7 8c0 3 3 7 7 7zm3 0h-6c-5 0-9 4-9 9v8c5 2 9 2 13 2 7 0 11-2 11-2v-8c0-5-4-9-9-9zm12-7h-6l-3 6c5 1 8 6 8 11v2c6 0 10-2 10-2v-8c0-5-4-9-9-9zm2-16c2 2 4 4 4 7l3 1c4 0 7-4 7-8s-3-7-7-7-7 4-7 7zm10 8h-6c0 3-1 5-3 7 5 1 8 5 8 10v2c6 0 10-1 10-2v-7c0-6-4-10-9-10zm-40 7l4-1 4-6c0-4-4-7-8-7s-7 3-7 7 3 7 7 7zm7 7l-3-6h-7c-5 0-9 4-9 9v8l11 2v-3c0-5 3-9 8-10z"
          clip-path="url(#h)"/>
    <defs>
        <path id="i" d="M7 353h61v61H7z"/>
    </defs>
    <clipPath id="j">
        <use overflow="visible" xlink:href="#i"/>
    </clipPath>
    <path fill="#36AD39"
          d="M42 401H11c-2 0-4 2-4 5v8h40v-8c0-3-2-5-5-5zm26 1l-29-28 6-6h3v-3l-12-12h-3v4-1l-15 15h-3v4l12 11h3v-3l5-5 29 28h4v-4z"
          clip-path="url(#j)"/>
    <g fill="#36AD39">
        <path d="M30 485c2 0 4 2 4 4s-2 4-4 4-4-2-4-4 2-4 4-4zm0 10c4 0 6-3 6-6a6 6 0 1 0-12 0c0 3 3 6 6 6z"/>
        <path d="M67 516h-7v-3l-1-1H37v-8l8-4 8-7v-2l-4-3h-1l-7 6-7 3h-8l-6-5-3-8h-1l-4 1h-1v1l3 9v1l9 8v8h-5l-1 1v3H9v-35h58v35zm-4 11c0 3-2 5-4 5s-4-2-4-5 2-4 4-4c3 0 4 2 4 4zm-9 7l-2-1 2-2 2 2-2 1zm-10 0l-2-1 2-2 1 2-1 1zm-11 0l-2-1 2-2 2 2-2 1zm-10 0l-2-1 2-2 2 2-2 1zm-9-7c0-2 1-4 4-4s4 2 4 4-2 5-4 5-4-2-4-5zm14 4c-2 1-4-1-4-4s2-4 4-4 4 2 4 4-2 4-4 4zm10 1c-2 0-4-2-4-5s2-4 4-4c3 0 5 2 5 4s-2 4-5 4zm11 0c-2 0-4-2-4-5s2-4 4-4 4 2 4 4-2 4-4 4zm9-18v7c-2 0-3 1-4 3-1-2-3-3-5-3l-5 3c-2-2-3-3-6-3s-4 1-5 3c-1-2-3-3-5-3l-5 3c-1-2-3-3-5-3v-7h40zm-30-15h4l-2 3-2-3zm-3 4l-8-8-3-9h2l3 7v1l6 5 4 5h2l4-5 7-3 6-6 2 2-6 6-8 5h-1v9H25v-9zm43-25H8l-1 2v37l1 1h9v3a6 6 0 0 0-3 12c-2 1-3 3-3 5v3h2v-3c0-2 2-4 5-4s4 2 4 4v3h2v-3c0-2 2-4 4-4s4 2 4 4v3h2v-3c0-2 2-4 4-4 3 0 5 2 5 4v3h2v-3c0-2 2-4 4-4s4 2 4 4v3h2v-3c0-2 2-4 4-4s4 2 4 4v3h2v-3l-2-5 2-6c0-3-2-5-5-6v-3h9l1-1v-38h-2z"/>
        <path d="M40 484h24v2H40v-2zm14 4h10v2H54v-2zm1 4h9v2h-9v-2zm-4 4h13v2H51v-2zm-4 4h17v2H47v-2zm-7 4h24v3H40v-2zm14 12h2v2h-2v-2zm-4 0h2v2h-2v-2zm-4 0h2v2h-2v-2z"/>
    </g>
    <path fill="#36AD39"
          d="M59 471H8v-44h3v2h2v-2h6v2h1v-2h6v2h2v-2h5v2h2v-2h5v2h2v-2h6v2h1c1 0 0 0 0 0v-2h6v2h2v-2h3v44h-1zm1-46h-4v-5h-2v5h-5v-5h-2v5h-5v-5h-1-1v5h-5v-5h-1-1v5h-6v-5h-2v5h-5v-5h-2v5h-5v-5h-1-1v5H8l-1 1v46l1 1h52l1-1v-46l-1-1z"/>
    <path fill="#36AD39"
          d="M56 453H12v-5h44v5zm-45-7l-1 1v7l1 1h45l1-1v-7l-1-1H11zm2-12h13v7h-5-1l-1 2-1-2h-5v-7zm-1 8h5l2 3h1l1-3h5l1-1v-8l-1-1H12l-1 1v8l1 1z"/>
    <path fill="#36AD39" d="M25 439l1-1v-2l-1-1-1 1v3h1z"/>
    <defs>
        <path id="k" d="M44 452h24v18H44z"/>
    </defs>
    <clipPath id="l">
        <use overflow="visible" xlink:href="#k"/>
    </clipPath>
    <path fill="#36AD39" d="M51 469l-7-6v-2h2l6 6 14-15h2v2l-16 15h-1z" clip-path="url(#l)"/>
    <defs>
        <path id="m" d="M8 553h61v63H8z"/>
    </defs>
    <clipPath id="n">
        <use overflow="visible" xlink:href="#m"/>
    </clipPath>
    <path fill="#36AD39"
          d="M53 614l2-7 8 3 4 4H53zm-8 0l1-11 7 3-3 8h-5zm-18 0l-3-8 7-3 1 11h-5zm-13-4l8-3 2 7H11c0-2 2-3 3-4zm13-20v-11h3c3 0 6 1 8 3l1 1 1-1a12 12 0 0 1 10-3v11c0 6-5 10-11 10h-1c-6 0-11-4-11-10zm-3-1v-3-1h1v4h-1zm-9-21l24-12 24 12-9 4v-4l-1-1s-4-2-10-2l-1 1 1 1 8 2v8h-3c-4 0-7 1-9 3a14 14 0 0 0-13-3v-8l9-2 1-1-1-1c-6 0-10 2-11 2v5l-9-4zm51 16h-1v-6-1l1 1v6zm-12 1v4h-1v-4h1zm-11 22l-3-3h-2l-4 3v-5l4 1h1l4-1v5zm-9 7v-4l5-3 4 3-1 4h-7zm35 1v-1c0-3-2-5-5-6l-17-7c3-2 5-5 6-9h1c1 0 3-1 3-3v-3c0-2-2-3-3-3h-1v-3h1v-5l10-5v5l-2 3v7l1 1h4l1-1v-7l-2-3v-7-1l-27-14h-1l-26 14-1 1 1 1 12 6v5h1v3h-1c-1 0-3 1-3 3v3c0 1 1 3 3 3h1c0 3 3 7 6 9l-18 7c-3 1-5 3-5 6v1l1 1c1 0 0 0 0 0h60v-1z"
          clip-path="url(#n)"/>
    <path fill="#36AD39"
          d="M39 567l1-1-1-2-1 2 1 1zm5 20l1-1-1-1-1 1 1 1zm-10-2l-2 1 2 1 1-1-1-1zm8 8l-2-2-1 1h-1l-1-1-1 2 1 1h4l1-1zM45 697c-11-6-17-16-17-26v-13h35v10h-2v-6l-2-1H31l-1 1v7c0 10 6 19 15 24v1l1-1c4-2 8-6 11-10l2 2c-3 5-8 9-14 12zm-31-7c-2 0-4-2-4-4v-3h9l1-1v-25l-1-1h-9v-7h43v7H26l-1 1v14c0 7 3 13 7 19H14zm4-28h-8v-4h8v4zm-8 15h8v4h-8v-4zm8-9h-8v-4h8v4zm-8 3h8v4h-8v-4zm32-24H21v-4c0-6 5-10 10-10s11 4 11 10v4zm-27-4a16 16 0 0 1 33 0v4h-4v-4a13 13 0 0 0-25 0v4h-4v-4zm34 28h9l-2 7-7-7zm9-3H45l-1 1v1l11 11c-2 4-5 7-10 10-7-5-12-13-12-22v-6h25v5zm5 3c0 4-1 8-3 11l-2-2 2-9h3zm4 18l-5-5c2-4 4-8 4-13h2v-3h-2v-11l-1-2h-9v-7l-2-1h-4v-4c0-11-8-19-19-19s-19 8-19 19v4H9l-1 1v38c0 4 3 6 6 6h21l10 8h1c1 0 0 0 0 0 7-4 12-8 15-13l4 4h-4v2h7l1-1v-7h-2v4z"/>
    <g fill="#36AD39">
        <path d="M52 744h-1l-5 1h-1l-7-2h-1c-4-2-6-4-8-7l-2-3-2-7 1-3c0-3 1-5 3-8 4-5 10-8 17-8 11 0 21 8 21 19 0 6-4 12-9 15v1l2 5-8-3zm-16 1h1v1H17v-2h19zm-13-20h-6v-1h6v1zm2 9l1 1h-9v-1h8zm2 20l-1 1-8 8v-8l-1-1h-7v-39h16l-2 7h-8l-1 1v3l1 1h7l1 5h-8l-1 1v3l1 1h11c1 2 3 4 6 5H16l-1 1v4l1 1h22l1-1v-2l5 1v8H27zm32-12c6-4 9-10 9-16 0-12-10-21-22-21-8 0-14 3-19 9H9l-1 1v40l1 1h7v9l1 1h1l10-10h17l1-1v-9h5l10 3 1 1v-1l1-1-4-6z"/>
        <path d="M62 726a1 1 0 0 0 2 0c0-3 0-5-2-8h-1v1l1 7zm-4-10l1-1v-1c-3-3-8-5-13-5a1 1 0 0 0 0 2c4 0 9 1 12 4v1zm-13 13l-2-2 2-2 2 2-2 2zm0-6a4 4 0 1 0 0 8 4 4 0 0 0 0-8zm10 6l-2-2 2-2 2 2-2 2zm4-2a4 4 0 1 0-4 4c2 0 4-2 4-4zm-25 2l-2-2 2-2 2 2-2 2zm0-6a4 4 0 1 0 0 8 4 4 0 0 0 0-8z"/>
    </g>
    <defs>
        <path id="o" d="M8 770h60v60H8z"/>
    </defs>
    <clipPath id="p">
        <use overflow="visible" xlink:href="#o"/>
    </clipPath>
    <path fill="#36AD39"
          d="M68 796l-2-1c-3 0-5-2-6-4-1-3-1-6 1-8v-2l-4-5h-3c-1 2-4 3-7 2-2-1-4-4-4-6l-2-2h-6l-2 2c0 2-1 5-4 6-2 1-5 0-7-2h-2l-5 5v2c2 2 3 5 2 8-1 2-4 4-7 4l-2 1v7l2 1c3 0 5 2 6 5s1 5-1 7v2l4 5h3c1-2 5-3 7-2 3 1 4 4 4 7l2 2h6l2-2c0-3 1-6 4-7 2-1 5 0 7 2h2l5-5v-2a7 7 0 0 1 5-12c1 1 2 0 2-1v-7zm-30 14c-6 0-10-5-10-10s4-10 10-10 10 4 10 10-4 10-10 10z"
          clip-path="url(#p)"/>
    <defs>
        <path id="q" d="M8 844h60v62H8z"/>
    </defs>
    <clipPath id="r">
        <use overflow="visible" xlink:href="#q"/>
    </clipPath>
    <path fill="#36AD39"
          d="M63 857H50v-6l-6-7H32l-6 6v7H14c-3 0-6 2-6 6v33c0 4 3 7 6 7h49c3 0 6-3 6-7v-33c-1-4-3-6-7-6zm-19 0H32v-6h12v6z"
          clip-path="url(#r)"/>
    <defs>
        <path id="s" d="M8 911h60v60H8z"/>
    </defs>
    <clipPath id="t">
        <use overflow="visible" xlink:href="#s"/>
    </clipPath>
    <path fill="#36AD39"
          d="M68 933c-1-2-3-4-5-4l-15-1-5-14c-1-2-3-3-5-3s-4 1-5 3l-6 14-14 1c-3 1-4 2-5 4-1 3 0 5 2 6l11 10-4 15 1 5 5 2 3-1 12-8 12 8 3 1 5-2 1-5-4-15 11-10c2-1 2-4 2-6zm-5 3l-12 11-1 2 4 16v1h-2l-13-9h-1-1l-14 9h-1l-1-1 4-16-1-2-12-11v-1l1-1 16-1 2-2 6-15 1-1 1 1 6 15 2 2 16 1 1 1-1 1z"
          clip-path="url(#t)"/>
    <path fill="#49528F"
          d="M60 977H16c-5 0-8 3-8 8v44c0 4 3 8 8 8h22v-22h-6l-1-1v-7l1-1h6v-7c0-8 4-12 11-12h6l1 1v6l-1 1h-3c-4 0-5 2-5 5v6h8l2 1-1 7-2 1h-7v22h13c4 0 8-4 8-8v-44c0-5-4-9-8-9z"/>
    <g>
        <path fill="#E04F5F" d="M60 1043H16c-5 0-8 4-8 9v44c0 4 3 8 8 8h44c4 0 8-4 8-8v-44c0-5-3-9-8-9z"/>
    </g>
    <path fill="#FFF" d="M28 1059l25 16-25 15v-31z"/>
    <g>
        <defs>
            <path id="u" d="M8 1114h60v87H8z"/>
        </defs>
        <clipPath id="v">
            <use overflow="visible" xlink:href="#u"/>
        </clipPath>
        <path fill="#1A1413"
              d="M31 1185l1 2h3v4h-6c-3 0-5 3-5 6v1l2 3c1 0 3-1 3-3v-1-1h6v2c0 1 1 3 3 3 1 0 3-1 3-3v-2h6v2c0 1 1 3 3 3 1 0 2-1 2-3v-1c0-3-2-6-5-6h-6v-4h3l1-2v-3H31v3zm34-39h-4c-2 1-3 2-3 4v2l2 2v9h-3l-2-1v-37c0-6-5-11-11-11H32c-6 0-11 5-11 11v37l-2 1h-3v-9l2-2v-2c0-2-2-4-3-4h-4c-2 1-3 2-3 4v2l1 2h2v12l2 2h3l-1 4v3c0 1 1 2 3 2h40l2-2v-3-4h2c2 0 3-1 3-2v-12h1l2-2v-2c0-2-1-4-3-4z"
              clip-path="url(#v)"/>
    </g>
    <g>
        <path fill="none" stroke="#1A1413" stroke-miterlimit="10" stroke-width="3"
              d="M31 1282l1 2h3v4h-6c-3 0-5 3-5 6v1l2 3c1 0 3-1 3-3v-1-1h6v2c0 1 1 3 3 3 1 0 3-1 3-3v-2h6v2c0 1 1 3 3 3 1 0 2-1 2-3v-1c0-3-2-6-5-6h-6v-4h3l1-2v-3H31v3zm34-39h-4c-2 1-3 2-3 4v2l2 2v9h-3l-2-1v-37c0-6-5-11-11-11H32c-6 0-11 5-11 11v37l-2 1h-3v-9l2-2v-2c0-2-2-4-3-4h-4c-2 1-3 2-3 4v2l1 2h2v12l2 2h3l-1 4v3c0 1 1 2 3 2h40l2-2v-3-4h2c2 0 3-1 3-2v-12h1l2-2v-2c0-2-1-4-3-4z"/>
    </g>
    <g>
        <defs>
            <path id="w" d="M8 1312h60v76H8z"/>
        </defs>
        <clipPath id="x">
            <use overflow="visible" xlink:href="#w"/>
        </clipPath>
        <path fill="#36AD39"
              d="M37 1312a30 30 0 0 0-27 43c3 7 10 19 26 32h3c16-13 23-25 26-32a25 25 0 0 0 2-7l1-6c0-17-14-30-31-30zm1 45c-8 0-15-6-15-14a15 15 0 0 1 29 0c0 8-6 14-14 14z"
              clip-path="url(#x)"/>
    </g>
    <g>
        <path fill="#36AD39"
              d="M38 1401c-17 0-30 14-30 31a30 30 0 1 0 60 0c0-17-13-31-30-31zm2 48h-5l-1-3 1-3 3-1 2 1 1 3-1 3zm9-22l-2 2-4 4-1 1-1 1-1 1v2c0 1-1 2-3 2l-2-1-1-2 1-3 2-3 2-3 3-1 1-2v-2l-1-3-4-1-4 1-2 4c0 2-1 2-3 2h-2l-1-2 2-5 4-4 6-1 6 1 4 3 2 5-1 4z"/>
    </g>
</svg>