<svg xmlns="http://www.w3.org/2000/svg" xmlns:xlink="http://www.w3.org/1999/xlink" width="83" height="1154.5" viewBox="0 -30.5 83 1154.5"><path fill="#36AD39" d="M27.4 10.3h26.9c1.8 0 3.4 1.5 3.4 3.4v18.5c0 1.8-1.5 3.4-3.4 3.4h-16l-5.4 6c-.1.1-.3.2-.4.2h-.2c-.2-.1-.4-.3-.4-.5v-5.6h-4.5c-1.8 0-3.4-1.5-3.4-3.4V13.7c.1-1.8 1.6-3.4 3.4-3.4z"/><defs><path id="a" d="M24 56.4h33.7v33.7H24z"/></defs><clipPath id="b"><use overflow="visible" xlink:href="#a"/></clipPath><path fill="#36AD39" d="M57.7 83c.1.5-.1 1-.5 1.4l-4.7 4.7c-.2.2-.5.4-.8.6s-.7.3-1 .3H50c-.5 0-1.2-.1-2.2-.2-1-.2-2.2-.5-3.7-1.1s-3.1-1.5-5-2.7-3.8-2.9-5.9-5c-1.7-1.6-3-3.2-4.1-4.7s-2-2.9-2.6-4.2c-.7-1.3-1.2-2.4-1.5-3.5-.3-1-.6-1.9-.7-2.7-.3-.7-.3-1.2-.3-1.7v-.7c0-.3.2-.7.3-1 .2-.3.4-.6.6-.8l4.7-4.7c.3-.3.7-.5 1.1-.5.3 0 .6.1.8.3.2.2.4.4.6.7l3.8 7.2c.2.4.3.8.2 1.2-.1.5-.3.8-.6 1.1l-1.7 1.7s-.1.1-.1.2-.1.2-.1.3c.1.5.3 1.1.6 1.7s.7 1.3 1.3 2.1c.6.8 1.4 1.8 2.5 2.8 1.1 1.1 2 1.9 2.9 2.6.8.6 1.5 1.1 2.1 1.3.6.3 1 .5 1.3.5l.4.1s.1 0 .2-.1c.1 0 .2-.1.2-.1l2-2.1c.4-.4.9-.6 1.5-.6.4 0 .7.1 1 .2l6.9 4.1c.8.4 1.1.8 1.2 1.3z" clip-path="url(#b)"/><defs><path id="c" d="M20.7 104.4h40.4v43.5H20.7z"/></defs><clipPath id="d"><use overflow="visible" xlink:href="#c"/></clipPath><path fill="#36AD39" d="M30.9 109.6l1.2.5c-.8.5-1.2 1-1.1 1.5s.5.9 1.3 1.2c.7.3 1.6.5 2.6.5s2.5-.2 4.6-.8c.5-.1.9-.2 1.2-.3.3 0 .5 0 .7.1.1.1.6.2-.5.7-.7.3-1.4.4-2.1.4-.6 0-1.1.1-1.4.3l-.6.4c-.3.2-.3.4-.1.6s.6.3 1.1.4c1.6.1 3.1 0 4.6-.5l1.6.7c.6.2 1.5.2 2 0 .6-.2.6-.6 0-.9l-1.6-.7c.7-.5 1.1-.9 1.1-1.4s-.4-1-1.3-1.4c-.6-.3-1.4-.4-2.1-.5-.8-.1-1.5 0-2.2.1s-1.7.4-3.1.8c-.6.2-1 .2-1.2.2s-.4 0-.5-.1c-.5-.2-.1-.5.3-.6.5-.2 1.1-.3 1.6-.3.6 0 1.1-.1 1.4-.3l.4-.3c.2-.2.2-.4 0-.6-.3-.2-.7-.3-1.2-.3-1.1 0-2.1.1-3.2.4l-1.2-.5c-.6-.2-1.5-.2-2 0-.9.1-.9.5-.3.7z" clip-path="url(#d)"/><defs><path id="e" d="M20.7 104.4h40.4v43.5H20.7z"/></defs><clipPath id="f"><use overflow="visible" xlink:href="#e"/></clipPath><path fill="#36AD39" d="M55.8 116c.1-.4.1-.8.1-1.2v-1.3c0-2.6-1.9-5-5.5-6.7-3.3-1.6-7.6-2.5-12.2-2.5s-8.9.9-12.2 2.5c-3.5 1.7-5.5 4.1-5.5 6.7v1.3c0 2.6 1.9 4.9 5.3 6.6-.1.4-.2.9-.2 1.2v.2c-3.3 1.7-5.2 4-5.2 6.5v1.3c0 1.8.9 3.4 2.5 4.8-.2.6-.3 1.2-.3 1.8v1.3c0 2.6 1.9 5 5.5 6.7 3.3 1.6 7.6 2.5 12.2 2.5s8.9-.9 12.2-2.5c3.5-1.7 5.5-4.1 5.5-6.7v-1.3c0-1.8-.9-3.4-2.5-4.8.2-.6.3-1.2.3-1.8v-.2c3.3-1.7 5.2-4 5.2-6.5v-1.3c.1-2.5-1.8-4.9-5.2-6.6zm-32.7-3.6c.5-1.3 1.9-2.6 4-3.6 3-1.4 6.9-2.2 11.2-2.2 4.2 0 8.2.8 11.2 2.2 2.1 1 3.5 2.3 4 3.6-1.8 3.1-8.1 5.4-15.2 5.4s-13.4-2.3-15.2-5.4zm0 15.9c.4-1.1 1.4-2.1 2.9-3 .6 2 2.4 3.9 5.3 5.3 3.3 1.6 7.6 2.5 12.2 2.5h1.3c-2 .4-4.2.7-6.5.7-7.1-.1-13.4-2.4-15.2-5.5zm32.5 8c-1.8 3.1-8.1 5.4-15.2 5.4-6.2 0-11.7-1.7-14.2-4.2 3.2 1.5 7.5 2.4 12 2.4 4.6 0 8.9-.9 12.2-2.5 1.7-.8 3-1.8 3.9-2.9.7.6 1.1 1.2 1.3 1.8zM43.4 127c-6.2 0-11.7-1.7-14.3-4.3 2.7.8 5.8 1.3 9.1 1.3 4.6 0 8.9-.9 12.2-2.5 2-1 3.5-2.1 4.4-3.4 2 1 3.3 2.2 3.8 3.5-1.8 3.1-8.1 5.4-15.2 5.4z" clip-path="url(#f)"/><defs><path id="g" d="M12.4 167.8h56.9v52.1H12.4z"/></defs><clipPath id="h"><use overflow="visible" xlink:href="#g"/></clipPath><path fill="#36AD39" d="M28 175c0-4 3.3-7.3 7.3-7.3s7.3 3.3 7.3 7.3-3.3 7.3-7.3 7.3S28 179 28 175zm10.9 12.2c.1-1.6.6-3.1 1.5-4.3-.6-.1-1.3-.2-1.9-.2h-6.2c-.7 0-1.3.1-1.9.2.9 1.3 1.5 2.9 1.5 4.6 1.1-.6 2.4-1 3.8-1 1.1.1 2.2.3 3.2.7zm1.2.7c2.1 1.3 3.6 3.6 3.9 6.2.9.4 1.8.6 2.8.6a6.7 6.7 0 0 0 0-13.4c-3.7 0-6.7 2.9-6.7 6.6zm-4.4 13.8A6.7 6.7 0 1 0 29 195c0 3.6 3 6.7 6.7 6.7zm2.8.4h-5.7c-4.7 0-8.6 3.9-8.6 8.6v7.1l.5.2c4.5 1.4 8.5 1.9 11.7 1.9 6.3 0 10-1.8 10.2-1.9l.4-.2v-7c.1-4.8-3.7-8.7-8.5-8.7zm11.2-6.9H44c-.1 2.3-1 4.3-2.6 5.8 4.2 1.3 7.3 5.2 7.3 9.8v2.1c5.6-.2 8.8-1.8 9-1.9l.5-.2v-7c.1-4.8-3.8-8.6-8.5-8.6zm1.5-14.1c2.1 1.3 3.6 3.6 3.9 6.2.9.4 1.8.6 2.8.6a6.7 6.7 0 0 0 0-13.4c-3.7 0-6.7 3-6.7 6.6zm9.6 7.3h-5.7c-.1 2.3-1 4.3-2.6 5.8 4.2 1.3 7.3 5.2 7.3 9.8v2.1c5.6-.2 8.8-1.8 9-1.9l.4-.2v-7c.2-4.7-3.7-8.6-8.4-8.6zm-36.9 6.3c1.3 0 2.5-.4 3.6-1 .3-2.2 1.5-4 3.1-5.3v-.4a6.7 6.7 0 1 0-6.7 6.7zm6 6.2c-1.5-1.5-2.5-3.5-2.6-5.7H21c-4.7 0-8.6 3.9-8.6 8.6v7.1l.5.2c3.6 1.1 6.9 1.7 9.7 1.8v-2.1c0-4.7 3.1-8.6 7.3-9.9z" clip-path="url(#h)"/><defs><path id="i" d="M14.1 242.3h53.6v53.6H14.1z"/></defs><clipPath id="j"><use overflow="visible" xlink:href="#i"/></clipPath><path fill="#36AD39" d="M44.9 284.6H18.1c-2.2 0-4 1.8-4 4v7.3h34.8v-7.3c0-2.2-1.8-4-4-4zm22.1.6l-24.5-24.5 4.7-4.7c.8.7 2 .7 2.7-.1.8-.8.8-2 0-2.8l-10.2-10.2c-.8-.8-2-.8-2.8 0s-.8 2 0 2.8l-.1-.1-12.9 12.9.1.1c-.8-.8-2-.8-2.8 0s-.8 2 0 2.8l10.2 10.2c.8.8 2 .8 2.8 0s.8-2 0-2.8l.1.1 4.7-4.7 24.5 24.5c1 1 2.5 1 3.5 0 .9-1 .9-2.6 0-3.5z" clip-path="url(#j)"/><g fill="#36AD39"><path d="M33.5 396c2 0 3.7 1.7 3.7 3.7s-1.7 3.7-3.7 3.7-3.7-1.7-3.7-3.7 1.6-3.7 3.7-3.7zm0 9.3c3.1 0 5.5-2.5 5.5-5.5 0-3.1-2.5-5.5-5.5-5.5-3.1 0-5.5 2.5-5.5 5.5-.1 3 2.4 5.5 5.5 5.5z"/><path d="M66.7 423.7h-6.5V421c0-.5-.4-.9-.9-.9H39.9v-6.8l6.9-3.4c.1 0 .2-.1.2-.2l6.5-6.5c.4-.4.4-.9 0-1.3l-2.8-2.8c-.3-.3-.9-.4-1.3 0l-6.4 5.4-6.2 2.6h-6.9l-5.1-4.2-2.7-7.2c-.2-.4-.6-.7-1.1-.6l-3.7.9c-.3.1-.5.2-.6.5-.1.2-.1.5-.1.7l2.8 8.3c0 .1.1.3.2.4L27 413v7h-4.6c-.5 0-.9.4-.9.9v2.8H15v-31.4h51.7v31.4zM63 433.9c0 2-1.7 3.7-3.7 3.7s-3.7-1.7-3.7-3.7 1.7-3.7 3.7-3.7c2.1 0 3.7 1.7 3.7 3.7zm-8.3 6.2c-.4-.6-.9-1.1-1.6-1.6.6-.4 1.1-.9 1.6-1.6.4.6.9 1.1 1.6 1.6-.6.4-1.2 1-1.6 1.6zm-9.2 0c-.4-.6-.9-1.1-1.6-1.6.6-.4 1.1-.9 1.6-1.6.4.6.9 1.1 1.6 1.6-.7.4-1.2 1-1.6 1.6zm-9.2 0c-.4-.6-.9-1.1-1.6-1.6.6-.4 1.1-.9 1.6-1.6.4.6.9 1.1 1.6 1.6-.7.4-1.2 1-1.6 1.6zm-9.3 0c-.4-.6-.9-1.1-1.6-1.6.6-.4 1.1-.9 1.6-1.6.4.6.9 1.1 1.6 1.6-.6.4-1.2 1-1.6 1.6zm-8.3-6.2c0-2 1.7-3.7 3.7-3.7s3.7 1.7 3.7 3.7-1.7 3.7-3.7 3.7-3.7-1.7-3.7-3.7zm12.9 3.7c-2 0-3.7-1.7-3.7-3.7s1.7-3.7 3.7-3.7 3.7 1.7 3.7 3.7-1.6 3.7-3.7 3.7zm9.3 0c-2 0-3.7-1.7-3.7-3.7s1.7-3.7 3.7-3.7 3.7 1.7 3.7 3.7-1.7 3.7-3.7 3.7zm9.2 0c-2 0-3.7-1.7-3.7-3.7s1.7-3.7 3.7-3.7 3.7 1.7 3.7 3.7-1.7 3.7-3.7 3.7zm8.3-15.7v6.5c-1.5.3-2.9 1.2-3.7 2.4-1-1.5-2.7-2.5-4.6-2.5-1.9 0-3.6 1-4.6 2.5-1-1.5-2.7-2.5-4.6-2.5s-3.6 1-4.6 2.5c-1-1.5-2.7-2.5-4.6-2.5s-3.6 1-4.6 2.5c-.8-1.3-2.2-2.1-3.7-2.4v-6.5h35zM31.7 409h3.5l-1.8 2.2-1.7-2.2zm-3.1 3l-7.2-7.2-2.4-7.2 1.9-.5 2.5 6.6c.1.2.2.3.3.4l5.5 4.6 3.6 4.5c.2.2.4.3.7.3s.5-.1.7-.3l3.5-4.4 6.2-2.7c.1 0 .2-.1.2-.1l5.8-5 1.5 1.5-5.7 5.7-7.3 3.6c-.3.2-.5.5-.5.8v7.4h-9.2v-7.4c.2-.2.1-.4-.1-.6zm39-21.5H14.1c-.5 0-.9.4-.9.9v33.2c0 .5.4.9.9.9h7.4v2.9c-2.6.4-4.6 2.7-4.6 5.5 0 1.9 1 3.6 2.5 4.6-1.5 1-2.5 2.7-2.5 4.6v2.8h1.8v-2.8c0-2 1.7-3.7 3.7-3.7s3.7 1.7 3.7 3.7v2.8h1.8v-2.8c0-2 1.7-3.7 3.7-3.7s3.7 1.7 3.7 3.7v2.8h1.8v-2.8c0-2 1.7-3.7 3.7-3.7s3.7 1.7 3.7 3.7v2.8h1.8v-2.8c0-2 1.7-3.7 3.7-3.7s3.7 1.7 3.7 3.7v2.8h1.8v-2.8c0-2 1.7-3.7 3.7-3.7s3.7 1.7 3.7 3.7v2.8h1.8v-2.8c0-1.9-1-3.6-2.5-4.6 1.5-1 2.5-2.7 2.5-4.6 0-2.7-2-5-4.6-5.5v-2.9h7.4c.5 0 .9-.4.9-.9v-33.2c.2-.5-.2-.9-.8-.9z"/><path d="M42.7 395.1H64v1.9H42.7v-1.9zm12 3.7H64v1.9h-9.3v-1.9zm.9 3.7H64v1.9h-8.4v-1.9zm-3.7 3.7H64v1.8H51.9v-1.8zm-3.6 3.7H64v1.8H48.3v-1.8zm-5.6 3.7H64v1.8H42.7v-1.8zm12 10.1h1.9v1.9h-1.9v-1.9zm-3.7 0h1.9v1.9H51v-1.9zm-3.7 0h1.9v1.9h-1.9v-1.9z"/></g><path fill="#36AD39" d="M63.7 370.4H10.5v-46.6h3v2c0 .5.4.9.9.9s.9-.4.9-.9v-2H21v2c0 .5.4.9.9.9s.9-.4.9-.9v-2h5.8v2c0 .5.4.9.9.9s.9-.4.9-.9v-2h5.8v2c0 .5.4.9.9.9s.9-.4.9-.9v-2h5.8v2c0 .5.4.9.9.9s.9-.4.9-.9v-2h5.8v2c0 .5.4.9.9.9s.9-.4.9-.9v-2H59v2c0 .5.4.9.9.9s.9-.4.9-.9v-2h3v46.6h-.1zm.9-48.3h-3.9v-4.8c0-.5-.4-.9-.9-.9s-.9.4-.9.9v4.8h-5.8v-4.8c0-.5-.4-.9-.9-.9s-.9.4-.9.9v4.8h-5.8v-4.8c0-.5-.4-.9-.9-.9s-.9.4-.9.9v4.8H38v-4.8c0-.5-.4-.9-.9-.9s-.9.4-.9.9v4.8h-5.8v-4.8c0-.5-.4-.9-.9-.9s-.9.4-.9.9v4.8h-5.8v-4.8c0-.5-.4-.9-.9-.9s-.9.4-.9.9v4.8h-5.8v-4.8c0-.5-.4-.9-.9-.9s-.9.4-.9.9v4.8H9.6c-.5 0-.9.4-.9.9v48.3c0 .5.4.9.9.9h55c.5 0 .9-.4.9-.9V323c0-.5-.4-.9-.9-.9z"/><path fill="#36AD39" d="M59.9 351.5H14.3v-5.8h45.6v5.8zm-46.5-7.6c-.5 0-.9.4-.9.9v7.6c0 .5.4.9.9.9h47.4c.5 0 .9-.4.9-.9v-7.6c0-.5-.4-.9-.9-.9H13.4zm1.8-12.4h13.4v6.8h-4.8c-.3 0-.6.1-.7.4l-1.2 1.7-1.2-1.7c-.2-.2-.4-.4-.7-.4h-4.8v-6.8zm-.9 8.5h5.2l1.6 2.4c.2.2.4.4.7.4.3 0 .6-.1.7-.4l1.6-2.4h5.2c.5 0 .9-.4.9-.9v-8.5c0-.5-.4-.9-.9-.9h-15c-.5 0-.9.4-.9.9v8.5c0 .5.4.9.9.9z"/><path fill="#36AD39" d="M26.7 337.1c.5 0 .9-.4.9-.9v-2.8c0-.5-.4-.9-.9-.9s-.9.4-.9.9v2.8c0 .5.4.9.9.9z"/><defs><path id="k" d="M47.9 350.4H73v18.5H47.9z"/></defs><clipPath id="l"><use overflow="visible" xlink:href="#k"/></clipPath><path fill="#36AD39" d="M54.9 368.5l-6.7-6.7c-.5-.5-.5-1.3 0-1.8s1.3-.5 1.8 0l5.8 5.8 15.1-15.1c.5-.5 1.3-.5 1.8 0s.5 1.3 0 1.8l-16 16c-.5.5-1.3.5-1.8 0z" clip-path="url(#l)"/><defs><path id="m" d="M5 459.6h71.7v73.8H5z"/></defs><clipPath id="n"><use overflow="visible" xlink:href="#m"/></clipPath><path fill="#36AD39" d="M57.2 530.5l2.9-8.2 9.5 3.7c2 .7 3.5 2.4 4 4.5H57.2zm-9 0l.7-12.5 8.6 3.3-3.3 9.2h-6zm-21.4 0l-3.3-9.1L32 518l.7 12.5h-5.9zM12 526s.1 0 0 0l8.9-3.5 2.9 8H8.1c.5-2.1 1.9-3.8 3.9-4.5zm15.3-23.9v-12c1-.3 2.1-.4 3.2-.4 3.5 0 6.8 1.3 9.4 3.8.3.3.6.4 1 .4s.7-.1 1-.4c2.5-2.4 5.9-3.8 9.4-3.8 1.1 0 2.1.1 3.1.4v12c0 7.1-5.8 12.8-12.8 12.8h-1.4c-7.1 0-12.9-5.7-12.9-12.8zm-4.3-.9v-3.5c0-.4.3-.7.7-.7h.8v4.8h-.8c-.4.1-.7-.2-.7-.6zm-9.8-24.5l27.7-14.1 27.7 14.1-10 5.1v-5.1c0-.6-.4-1.2-1-1.4-.2-.1-5.3-1.7-11.7-2.4-.8-.1-1.5.5-1.6 1.3s.5 1.5 1.3 1.6c4.5.5 8.4 1.5 10.1 2v9.6c-1.4-.4-2.9-.6-4.5-.6-3.8 0-7.4 1.3-10.4 3.7-2.9-2.4-6.6-3.7-10.4-3.7-1.5 0-3 .2-4.5.6v-9.7c1.8-.5 5.7-1.5 10.3-2 .8-.1 1.4-.8 1.3-1.6-.1-.8-.8-1.4-1.6-1.3-6.5.7-11.7 2.4-11.9 2.4-.6.2-1 .7-1 1.4v5.1l-9.8-5zm59.2 18.5h-1.3v-6.9c0-.3.3-.6.6-.6s.6.3.6.6l.1 6.9zM58.1 497c.4 0 .7.3.7.7v3.5c0 .4-.3.7-.7.7h-.8V497h.8zm-12.3 25.4l-4-3.2c-.5-.4-1.2-.4-1.8 0l-4.7 3.5-.3-5.7c1.6.6 3.4.9 5.2.9h1.4c1.6 0 3.1-.2 4.5-.7l-.3 5.2zm-10.1 8.1l-.3-4.4 5.4-4 4.7 3.8-.3 4.6h-9.5zm41 1.3v-.5c-.3-3.6-2.6-6.7-6-8l-20.7-8c3.6-2.3 6.3-6.1 7-10.6h1c2 0 3.5-1.6 3.5-3.5v-3.5c0-2-1.6-3.5-3.5-3.5h-.8v-3.3c.2 0 .5-.1.7-.2.4-.3.6-.7.6-1.2v-4.4l11.7-6v6.1c-1.2.6-2.1 1.8-2.1 3.2v8.3c0 .8.6 1.4 1.4 1.4h4.1c.8 0 1.4-.6 1.4-1.4v-8.3c0-1.4-.9-2.7-2.1-3.2v-8.5c0-.5-.3-1-.8-1.3l-30.9-15.7c-.4-.2-.9-.2-1.3 0L9.3 475.5c-.5.2-.8.7-.8 1.3 0 .5.3 1 .8 1.3l13.8 7v4.4c0 .5.2.9.6 1.2.2.1.4.2.6.2v3.2h-.8c-2 0-3.5 1.6-3.5 3.5v3.5c0 2 1.6 3.5 3.5 3.5h1c.7 4.3 3.3 8.1 6.8 10.4L11 523.3c-3.4 1.2-5.7 4.4-6 7.9v.6c0 .4.1.8.4 1.1s.7.5 1.1.5h68.9c.4 0 .8-.2 1.1-.5s.3-.7.2-1.1z" clip-path="url(#n)"/><path fill="#36AD39" d="M40.9 475.5c.9 0 1.5-.6 1.5-1.4s-.6-1.4-1.4-1.4h-.1c-.8 0-1.4.6-1.4 1.4-.1.8.6 1.4 1.4 1.4zm5.9 24.2c.9 0 1.7-.7 1.7-1.7 0-.9-.7-1.7-1.7-1.7-.9 0-1.7.7-1.7 1.7.1 1 .8 1.7 1.7 1.7zm-11.9-3.3c-.9 0-1.7.7-1.7 1.7 0 .9.7 1.7 1.7 1.7.9 0 1.7-.7 1.7-1.7-.1-1-.8-1.7-1.7-1.7zm9.3 9.4c0-.8-.6-1.4-1.4-1.4h-.1c-.4 0-.8.2-1.1.5-.1.1-.4.2-.8.2s-.6-.1-.8-.2c-.3-.3-.6-.5-1.1-.5h.1c-.8 0-1.4.6-1.4 1.4 0 .5.3 1 .7 1.2.5.4 1.3.8 2.6.8s2.2-.5 2.6-.9c.4-.1.7-.6.7-1.1zM48.7 630.3c-12.4-6.9-19.8-17.7-19.8-29v-14.7h39.7v11.3h-2.8v-7.1c0-.8-.6-1.4-1.4-1.4H33.1c-.8 0-1.4.6-1.4 1.4v7.8c0 11.5 6.3 22 16.3 27.5.2.1.4.2.7.2.2 0 .5-.1.7-.2 5.2-2.8 9.3-7 12.2-11.9l2.4 2.4c-3.5 5.3-8.7 10.1-15.3 13.7zM13.2 622c-2.3 0-4.3-1.9-4.3-4.3v-2.8h9.9c.8 0 1.4-.6 1.4-1.4v-28.4c0-.8-.6-1.4-1.4-1.4H9v-7.1h48.2v7.1H27.4c-.8 0-1.4.6-1.4 1.4v16.2c0 7.4 2.9 14.6 8 20.7H13.2zm4.3-31.2H9v-4.3h8.5v4.3zm-8.5 17h8.5v4.3H9v-4.3zm8.5-9.9H9v-4.3h8.5v4.3zM9 600.8h8.5v4.3H9v-4.3zm35.4-27H21.7v-4.3c0-6.3 5.1-11.3 11.3-11.3s11.3 5.1 11.3 11.3v4.3h.1zm-29.8-4.2c0-10.2 8.3-18.4 18.4-18.4s18.4 8.3 18.4 18.4v4.3h-4.3v-4.3c0-7.8-6.4-14.2-14.2-14.2s-14.2 6.4-14.2 14.2v4.3h-4.3v-4.3h.2zm37.5 31.2h10.7c-.2 3-.9 5.9-2 8.6l-8.7-8.6zm10.7-2.9H48.7c-.6 0-1.1.3-1.3.9-.2.5-.1 1.1.3 1.5l11.8 11.8c-2.5 4.6-6.1 8.4-10.8 11.1-8.8-5.1-14.2-14.5-14.2-24.6v-6.3h28.4l-.1 5.6zm5.7 3.4c0 4.4-1.1 8.7-3.2 12.7l-2.5-2.5c1.5-3.4 2.5-7 2.7-10.8h2.9l.1.6zm4.3 20.1l-5.3-5.3c2.5-4.6 3.9-9.6 3.9-14.8v-.6h2.8v-2.8h-2.8v-12.8c0-.8-.6-1.4-1.4-1.4H60v-8.5c0-.8-.6-1.4-1.4-1.4h-4.3v-4.3c0-11.7-9.5-21.3-21.3-21.3s-21.3 9.5-21.3 21.3v4.3H7.6c-.8 0-1.4.6-1.4 1.4v42.6c0 3.9 3.2 7.1 7.1 7.1h23.3c3.2 3.2 7 6 11.4 8.3.2.1.4.2.7.2s.5-.1.7-.2c7.2-3.8 12.8-8.9 16.6-14.6l4.8 4.8h-5.1v2.8h8.5c.8 0 1.4-.6 1.4-1.4v-8.5h-2.8v5.1z"/><g fill="#36AD39"><path d="M55.2 688.7c-.2-.1-.4-.1-.6 0-1.8.5-3.7.7-5.6.7h-.8c-2.5-.1-4.9-.6-7.2-1.4l-1.5-.6c-3.5-1.6-6.5-4.1-8.6-7.2-.7-1-1.2-2-1.7-3.1-1-2.3-1.5-4.7-1.6-7.2v-.3c0-.9.1-1.9.2-2.8.5-3 1.6-5.7 3.4-8.2 4-5.5 10.6-8.8 17.8-8.8 11.8 0 21.4 8.9 21.4 19.8 0 6.4-3.4 12.4-9 16.1-.4.3-.6.8-.3 1.3l2.4 4.7-8.3-3zm-16.4.5c.3.1.5.2.8.3v.9H19v-1.2h19.8zm-13.2-20.3H19v-1.2h6.7c-.1.4-.1.8-.1 1.2zm2 9.5l.6 1.2H19v-1.2h8.6zm1.9 21.2c-.3 0-.5.1-.7.3l-8.8 8.6v-7.9c0-.6-.5-1-1-1h-7.6V659h17.1c-1.2 2.1-2.1 4.3-2.6 6.6h-8c-.6 0-1 .5-1 1v3.2c0 .6.5 1 1 1h7.7c.1 1.9.5 3.7 1.1 5.5h-8.8c-.6 0-1 .5-1 1v3.2c0 .6.5 1 1 1h11.5c1.5 2.1 3.5 4 5.7 5.5H17.9c-.6 0-1 .5-1 1v3.2c0 .6.5 1 1 1h22.7c.6 0 1-.5 1-1V690c1.8.6 3.6.9 5.5 1v8.3H29.5v.3zm33.7-12.7c5.8-4.1 9.2-10.5 9.2-17.3 0-12-10.5-21.8-23.4-21.8-7.6 0-14.7 3.4-19.1 9.2H10.4c-.6 0-1 .5-1 1v42.6c0 .6.5 1 1 1H18v9.2c0 .4.2.8.6.9.1.1.3.1.4.1.3 0 .5-.1.7-.3l10.2-10h18.2c.6 0 1-.5 1-1v-9.2c1.9 0 3.8-.2 5.6-.7l10.3 3.9c.1 0 .2.1.4.1.3 0 .6-.1.8-.3.3-.3.3-.8.2-1.1l-3.2-6.3z"/><path d="M66.3 669.6c0 .6.5 1 1 1 .6 0 1-.5 1-1 0-2.7-.7-5.3-2-7.8-.3-.5-.9-.7-1.4-.4s-.7.9-.4 1.4c1.2 2.1 1.8 4.4 1.8 6.8zM62.2 659c.3 0 .5-.1.7-.3.4-.4.4-1 0-1.4-3.7-3.5-8.6-5.4-13.9-5.4-.6 0-1 .5-1 1 0 .6.5 1 1 1 4.8 0 9.2 1.7 12.5 4.9.2.1.4.2.7.2zm-14.3 14.2c-1.1 0-2-.9-2-2s.9-2 2-2 2 .9 2 2c-.1 1.1-.9 2-2 2zm0-6c-2.2 0-4 1.8-4 4s1.8 4 4 4 4-1.8 4-4-1.8-4-4-4zm10.8 6c-1.1 0-2-.9-2-2s.9-2 2-2 2 .9 2 2c-.1 1.1-1 2-2 2zm3.9-2c0-2.2-1.8-4-4-4s-4 1.8-4 4 1.8 4 4 4c2.3 0 4-1.8 4-4zm-25.5 2c-1.1 0-2-.9-2-2s.9-2 2-2 2 .9 2 2c-.1 1.1-.9 2-2 2zm0-6c-2.2 0-4 1.8-4 4s1.8 4 4 4 4-1.8 4-4-1.8-4-4-4z"/></g><defs><path id="o" d="M13.5 733.8h54.7v54.7H13.5z"/></defs><clipPath id="p"><use overflow="visible" xlink:href="#o"/></clipPath><path fill="#36AD39" d="M67.8 758c-.1-.8-1-1.3-1.8-1.3-2.5 0-4.7-1.5-5.6-3.7-.9-2.3-.3-5 1.5-6.7.6-.5.7-1.4.2-2.1-1.3-1.6-2.7-3.1-4.3-4.4-.6-.5-1.5-.4-2.1.2-1.6 1.8-4.5 2.5-6.8 1.5s-3.8-3.4-3.7-5.9c0-.8-.5-1.5-1.3-1.6-2-.2-4.1-.2-6.1 0-.8.1-1.4.8-1.3 1.6.1 2.5-1.4 4.9-3.7 5.8-2.2.9-5.1.2-6.7-1.5-.5-.6-1.4-.7-2.1-.2-1.6 1.3-3.1 2.7-4.4 4.4-.5.6-.4 1.5.2 2.1 1.9 1.7 2.5 4.4 1.5 6.8-.9 2.2-3.3 3.7-5.9 3.7-.9 0-1.5.6-1.6 1.3-.2 2-.2 4.1 0 6.2.1.8 1 1.3 1.8 1.3 2.4-.1 4.6 1.4 5.6 3.7s.3 5-1.5 6.7c-.6.5-.7 1.4-.2 2.1 1.3 1.6 2.7 3.1 4.3 4.4.6.5 1.5.4 2.1-.2 1.6-1.8 4.5-2.5 6.8-1.5 2.4 1 3.8 3.4 3.7 5.9 0 .8.5 1.5 1.3 1.6 1 .1 2.1.2 3.1.2s2-.1 3-.2c.8-.1 1.4-.8 1.3-1.6-.1-2.5 1.4-4.9 3.7-5.8 2.2-.9 5.1-.2 6.7 1.5.5.6 1.4.7 2.1.2 1.6-1.3 3.1-2.7 4.4-4.4.5-.6.4-1.5-.2-2.1-1.9-1.7-2.5-4.4-1.5-6.8.9-2.2 3.2-3.7 5.6-3.7h.3c.8.1 1.5-.5 1.6-1.3.3-2 .3-4.1 0-6.2zm-27 12.2c-5 0-9.1-4.1-9.1-9.1s4.1-9.1 9.1-9.1 9.1 4.1 9.1 9.1-4.1 9.1-9.1 9.1z" clip-path="url(#p)"/><defs><path id="q" d="M18.1 816.3h45.6v46H18.1z"/></defs><clipPath id="r"><use overflow="visible" xlink:href="#q"/></clipPath><path fill="#36AD39" d="M59.5 825.5h-9.2v-4.6l-4.6-4.6h-9.2l-4.6 4.6v4.6h-9.2c-2.5 0-4.6 2.1-4.6 4.6v25.3c0 2.5 2.1 4.6 4.6 4.6h36.8c2.5 0 4.6-2.1 4.6-4.6v-25.3c0-2.5-2.1-4.6-4.6-4.6zm-13.8 0h-9.2v-4.6h9.2v4.6z" clip-path="url(#r)"/><g><defs><path id="s" d="M7.6 878.8h66.5v64.1H7.6z"/></defs><clipPath id="t"><use overflow="visible" xlink:href="#s"/></clipPath><path fill="#36AD39" d="M73.8 902.8c-.8-2.3-2.8-4-5.3-4.2l-16-1.2-6.1-14.9c-.9-2.3-3.1-3.7-5.6-3.7s-4.6 1.5-5.6 3.8l-6 14.9-16 1.2c-2.5.2-4.5 1.8-5.3 4.2-.8 2.3 0 4.9 1.9 6.5L22 919.7l-3.8 15.6c-.5 1.8-.1 3.7 1.1 5.1 1.2 1.5 2.9 2.3 4.8 2.3 1.1 0 2.2-.3 3.2-.9l13.6-8.5 13.6 8.5c1 .6 2.1.9 3.2.9 1.8 0 3.6-.9 4.8-2.3 1.1-1.5 1.5-3.3 1.1-5.1l-3.8-15.6L72 909.3c1.8-1.6 2.6-4.1 1.8-6.5zm-4.9 2.9L55.5 917c-.7.6-1 1.5-.8 2.4l4.2 17c.1.4 0 .8-.2 1.1-.4.5-1.2.7-1.8.3L42 928.6c-.4-.2-.8-.4-1.2-.4s-.9.1-1.2.4l-14.9 9.2c-.6.4-1.3.2-1.8-.3-.2-.3-.3-.7-.2-1.1l4.2-17c.2-.9-.1-1.8-.8-2.4l-13.4-11.3c-.6-.5-.5-1.2-.4-1.4.1-.3.4-.9 1.2-.9l17.5-1.3c.9-.1 1.7-.6 2-1.5l6.6-16.2c.3-.7 1-.8 1.2-.8.3 0 .9.1 1.2.8l6.6 16.2c.3.8 1.1 1.4 2 1.5l17.5 1.3c.8.1 1.1.7 1.2.9.1.3.2.9-.4 1.4z" clip-path="url(#t)"/></g><g><path fill="#49528F" d="M62.9 973.7H18.8c-4.5 0-8.1 3.6-8.1 8.1v44.1c0 4.5 3.6 8.1 8.1 8.1h21.8v-21.6H35c-.7 0-1.3-.6-1.3-1.3v-7c0-.7.6-1.3 1.3-1.3h5.6v-6.7c0-7.8 4.8-12 11.7-12H58c.7 0 1.3.6 1.3 1.3v5.9c0 .7-.6 1.3-1.3 1.3h-3.5c-3.8 0-4.5 1.8-4.5 4.4v5.8h8.3c.8 0 1.4.7 1.3 1.5l-.8 7c-.1.7-.6 1.2-1.3 1.2H50v21.6h12.9c4.5 0 8.1-3.6 8.1-8.1v-44.1c.1-4.6-3.6-8.2-8.1-8.2z"/></g><g><path fill="#E04F5F" d="M64.8 1045.9H16.9c-4.9 0-8.8 4-8.8 8.8v47.9c0 4.9 4 8.8 8.8 8.8h47.8c4.9 0 8.8-4 8.8-8.8v-47.9c.1-4.8-3.8-8.8-8.7-8.8z"/></g><path fill="#FFF" d="M30.8 1063.2l26.4 16.7-26.4 16.7v-33.4z"/><g><path fill="#141614" d="M21.4-12.6c.6 0 1.1.1 1.4.2.4.1.7.3.9.6.2.2.4.5.5.9.1.3.1.7.1 1.2v4c-.3.1-.7.1-1.2.2s-1.1.1-1.8.1c-.4 0-.8 0-1.2-.1-.4-.1-.7-.2-.9-.4-.3-.2-.5-.4-.6-.7-.1-.3-.2-.6-.2-1.1 0-.4.1-.7.2-1 .2-.3.4-.5.6-.7.3-.2.6-.3.9-.4.3-.1.7-.1 1.1-.1h.7c.2 0 .4 0 .5.1v-.2c0-.3-.1-.6-.3-.8-.2-.2-.5-.3-1-.3-.3 0-.7 0-1 .1-.3 0-.6.1-.8.2l-.3-1.6c.1 0 .3-.1.4-.1.2 0 .4-.1.6-.1.2 0 .4-.1.6-.1.3.1.5.1.8.1zm.1 5.6h.9v-1.5c-.1 0-.2 0-.4-.1h-.9c-.2 0-.3.1-.4.1-.1.1-.2.1-.3.2-.1.1-.1.2-.1.4 0 .3.1.5.3.6.3.3.6.3.9.3zm6.6-3l.6-.6c.2-.2.4-.4.6-.7.2-.2.4-.4.5-.6.2-.2.3-.4.4-.5h2.3c-.5.5-.9 1-1.3 1.5s-.9 1-1.4 1.5c.2.1.5.4.7.7.3.3.5.7.8 1 .3.3.5.7.7 1 .2.3.4.7.6 1h-2.2c-.1-.2-.3-.5-.5-.7-.2-.3-.4-.5-.6-.8-.2-.3-.4-.5-.6-.8s-.4-.5-.7-.6v3h-1.9v-9.8l1.9-.3.1 5.7zm11.3 4.1c-.3.1-.8.2-1.3.3-.5.1-1.1.1-1.6.1-.6 0-1.1-.1-1.5-.2-.4-.2-.7-.4-.9-.7-.2-.3-.4-.6-.5-1-.1-.4-.1-.8-.1-1.3v-3.8h1.9v3.6c0 .6.1 1.1.3 1.4.2.3.5.4.9.4h.8v-5.3h1.9l.1 6.5zm8.2-3.2c0 .5-.1 1-.2 1.4-.1.4-.3.8-.6 1.1-.3.3-.6.6-.9.7-.4.2-.8.3-1.3.3-.3 0-.5 0-.8-.1-.2-.1-.5-.1-.7-.2v2.6h-1.9v-9c.2-.1.4-.1.6-.2.2 0 .5-.1.7-.1.2 0 .5-.1.8-.1h.7c.6 0 1.1.1 1.5.2.4.2.8.4 1.1.7.3.3.5.7.7 1.1.2.5.3 1 .3 1.6zm-2 0c0-.6-.1-1.1-.4-1.4-.3-.4-.7-.5-1.2-.5h-.9v3.5c.1.1.3.1.5.2s.4.1.6.1c.9 0 1.4-.6 1.4-1.9zm5.6-5.4c0 .4-.1.6-.3.8-.2.2-.5.3-.8.3-.3 0-.6-.1-.8-.3-.2-.2-.3-.5-.3-.8 0-.4.1-.6.3-.8.2-.2.5-.3.8-.3.3 0 .6.1.8.3.1.1.3.4.3.8zM51-5.7h-1.9v-6.8H51v6.8zm3.5 0c-.4-.9-.9-1.9-1.4-3-.5-1.2-.9-2.4-1.3-3.8h2.1c.1.3.2.7.3 1.1.1.4.2.8.4 1.2.1.4.3.8.4 1.2.1.4.3.7.4 1 .1-.3.2-.7.4-1 .1-.4.3-.8.4-1.2.1-.4.2-.8.4-1.2.1-.4.2-.8.3-1.1h2c-.4 1.4-.8 2.6-1.3 3.8-.5 1.2-.9 2.2-1.3 3.1l-1.8-.1zm8 .1c-.6 0-1-.1-1.4-.2-.4-.1-.6-.3-.8-.5-.2-.2-.3-.4-.4-.7-.1-.3-.1-.6-.1-1v-7.5l1.9-.3v8c0 .1.1.3.2.4.1.1.2.2.3.2.1.1.3.1.6.1l-.3 1.5zm3.5-9c0 .4-.1.6-.3.8-.2.2-.5.3-.8.3-.3 0-.6-.1-.8-.3-.2-.2-.3-.5-.3-.8 0-.4.1-.6.3-.8.2-.2.5-.3.8-.3.3 0 .6.1.8.3.2.2.3.4.3.8zm-.2 8.8h-1.9v-6.8h1.9v6.8z"/><path fill="#36AD39" d="M72.1-12.1c0 .3-.1.6-.2.9-.1.3-.3.6-.5.8-.2.3-.4.5-.7.8-.2.3-.5.5-.7.7-.1.1-.3.2-.4.4l-.4.4c-.1.2-.3.3-.4.4-.1.1-.2.2-.2.3h3.7v1.6h-5.8v-.6c0-.4.1-.8.2-1.1.1-.3.3-.6.5-.9.3-.3.5-.6.8-.8.3-.2.5-.5.8-.8.2-.2.4-.4.6-.5l.5-.5c.1-.2.2-.3.3-.5.1-.2.1-.3.1-.5 0-.4-.1-.6-.3-.8s-.5-.2-.8-.2c-.2 0-.4 0-.6.1-.2.1-.4.2-.5.2-.2.1-.3.2-.4.3-.1.1-.2.2-.3.2l-.9-1.3c.4-.3.8-.6 1.3-.8.5-.2 1-.3 1.6-.3.5 0 .9.1 1.3.2s.7.3.9.5c.2.2.4.5.5.8v1zm6.4-2.3v5.2h.9v1.5h-.9v1.9h-1.8v-1.9H73V-9c.2-.4.4-.8.7-1.2.3-.5.6-.9.9-1.4.3-.5.7-1 1.1-1.4.4-.5.8-.9 1.1-1.3l1.7-.1zm-1.8 2.3c-.3.4-.7.9-1 1.4-.4.5-.7 1-.9 1.5h2v-2.9z"/><path fill="#3EAB3B" d="M7.6-8c2.2-2.2 4.2-4.1 6.2-6.3H8.2v-2.4h7.2c-.2-.2-.6-.5-1-.7-.7-.4-1.5-.7-2.3-1-1.1-.3-2.8-.2-3.8.1-2.5.8-4.2 2.2-5.2 4.4-.1.3-.5 1.2-.5 2.1-.1 1.2.1 2.4.1 2.5.3.7.5 1.4.9 2 1 1.6 2.2 2.8 4 3.5 3 1.2 6.6-.1 8.2-1.7H7.6V-8zm10.2-4.8c-.1-.3-.2-.7-.3-1-1.9 2-3.7 3.9-5.6 5.9h5.6c.2-.6.3-1 .5-1.5.2-1 0-2.5-.2-3.4z"/><path fill="#141614" d="M7.6-8h2.6v2.5H7.6z"/></g></svg>